<?xml version="1.0" encoding="utf-8"?>
<!-- Generator: Adobe Illustrator 20.1.0, SVG Export Plug-In . SVG Version: 6.00 Build 0)  -->
<svg version="1.1" id="Layer_1" xmlns="http://www.w3.org/2000/svg" xmlns:xlink="http://www.w3.org/1999/xlink" x="0px" y="0px"
	 viewBox="0 0 115 100" style="enable-background:new 0 0 115 100;" xml:space="preserve">
<style type="text/css">
	.st0{fill:#FFFFFF;}
	.st1{fill:#EE3B6E;}
	.st2{fill:#F2BB93;}
</style>
<g>
	<g>
		<g>
			<path class="st0" d="M63.1,58.2h-0.5v-23H90v0.5C90,58,63.4,58.2,63.1,58.2z M63.6,36.2v21.1c1.6-0.1,7.2-0.4,12.6-2.7
				c8.4-3.5,12.8-9.7,12.9-18.4H63.6z"/>
			<path class="st0" d="M90.6,36.2H62.6v-3.9h27.9l0.1,0.3c0.9,1.7,0,3.3,0,3.4L90.6,36.2z M63.6,35.2H90c0.1-0.4,0.3-1.2,0-2H63.6
				V35.2z"/>
			<polygon class="st0" points="72.3,62.1 69.2,62.1 66.8,57.8 67.6,57.3 69.8,61.1 71.1,61.1 70.1,57 71.1,56.7 			"/>
			<polygon class="st0" points="84.7,32.7 84,32.7 84,28.4 82.6,28.4 82.6,32.6 81.9,32.6 81.9,27.7 84.7,27.7 			"/>
			<polygon class="st0" points="79.3,31 78.6,31 78.6,29.1 82.3,29.1 82.3,29.8 79.3,29.8 			"/>
			<path class="st0" d="M63.6,62.1h-32V16.2l32-9.2V62.1z M32.5,61.1h30.1V8.3l-30.1,8.6V61.1z"/>
			<path class="st0" d="M24.5,19.3L24.3,19c-0.6-0.8-1.3-2.7,0-4.2l0.1-0.1L63.6,3.1v4.5h-0.9V4.4L24.9,15.5c-0.8,1-0.3,2.2-0.1,2.7
				l7-2.1l0.3,0.9L24.5,19.3z"/>
			<path class="st0" d="M51.6,40.8H37.7v-18h13.9V40.8z M38.6,39.9h12V23.8h-12V39.9z"/>
			<polygon class="st0" points="57.2,61.6 56.3,61.6 56.3,22.9 63.1,22.9 63.1,23.8 57.2,23.8 			"/>
		</g>
	</g>
	<path class="st1" d="M66,11.5c0,0-2.2-0.1-2.9,1.3c-0.7-1.4-2.9-1.3-2.9-1.3c-1.6,0.2-2.2,1-2.5,1.9c-0.4,1.3,0,2.6,1,3.5l4.4,4.1
		l4.4-4.1c1-0.9,1.4-2.2,1-3.5C68.3,12.6,67.6,11.7,66,11.5z"/>
	<g>
		<path class="st2" d="M59.6,95.4c0,0,0,3.2,4.6,0c4.6-3.2,27.7-17.8,30.4-21c0,0,5.4-3.9,9.6-12.1s8.2-22.4,8-29.2c0,0-2.4-4.7-6,0
			s-8.9,18.7-10.6,20.8c-4,5.1-16.7,16.6-16.7,16.6l0.1-4.8c0,0,5-4.3,6.2-6.3c0,0,6.7-3.5,7-8.3c0,0,1.3-3.2-2-3.2
			c0,0-17.9,12.9-19.4,13.1c0,0-10.2,5.9-11.1,17.7V95.4z"/>
		<path class="st2" d="M55.1,95.4c0,0,0,3.2-4.6,0c-4.6-3.2-27.7-17.8-30.4-21c0,0-5.4-3.9-9.6-12.1s-8.2-22.4-8-29.2
			c0,0,2.4-4.7,6,0S17.4,51.8,19,53.9c4,5.1,16.7,16.6,16.7,16.6l-0.1-4.8c0,0-5-4.3-6.2-6.3c0,0-6.7-3.5-7-8.3c0,0-1.3-3.2,2-3.2
			c0,0,17.9,12.9,19.4,13.1c0,0,10.2,5.9,11.1,17.7V95.4z"/>
	</g>
</g>
</svg>
