<?xml version="1.0" encoding="utf-8"?>
<!-- Generator: Adobe Illustrator 20.1.0, SVG Export Plug-In . SVG Version: 6.00 Build 0)  -->
<svg version="1.1" id="Layer_1" xmlns="http://www.w3.org/2000/svg" xmlns:xlink="http://www.w3.org/1999/xlink" x="0px" y="0px"
	 viewBox="0 0 150 24" style="enable-background:new 0 0 150 24;" xml:space="preserve">
<style type="text/css">
	.st0{fill:#3F707D;}
</style>
<g>
	<path class="st0" d="M5.7,10.9L6,10l0.2-0.3H4.9c-0.3,0-0.6,0-0.8-0.1c-0.3,0-0.5-0.1-0.6-0.3C3.3,9.1,3.2,8.9,3.4,8.9
		c0.3-0.2,1.4-0.3,3.3-0.4c0.5-1.3,1.1-2.7,1.7-4.3c0.6-1.6,0.9-2.5,0.9-2.6c0-0.2,0.1-0.4,0.4-0.4c0.1-0.1,0.2-0.1,0.4-0.1l0.4,0.4
		c0.2,0.1,0.2,0.4,0.2,0.6s0,0.4,0,0.5c0,0.1,0,0.2,0,0.2c0,0.1-0.1,0.2-0.1,0.3c-0.1,0.1-0.1,0.3-0.2,0.4c0,0.1-0.1,0.3-0.3,0.6
		C9.8,4.3,9.7,4.5,9.6,4.7C9.5,4.8,9.3,5.4,8.9,6.4c-0.4,1-0.7,1.7-0.8,2c0.7,0,1.9-0.1,3.6-0.1c1.7-4.2,2.5-6.4,2.5-6.7
		c0-0.3,0.1-0.4,0.4-0.4c0.1-0.1,0.2-0.1,0.4-0.1l0.4,0.4c0.2,0.1,0.2,0.4,0.2,0.6s0,0.4,0,0.5c0,0.1,0,0.2,0,0.2
		c0,0.1-0.1,0.2-0.1,0.3c-0.1,0.1-0.1,0.3-0.2,0.4c0,0.1-0.1,0.3-0.3,0.6c-0.1,0.3-0.2,0.5-0.3,0.7c-0.8,1.8-1.3,3-1.6,3.6h1.1
		c0.4,0,0.6,0,0.8,0.1c0.1,0,0.3,0.1,0.4,0.3c0.2,0.2,0.3,0.4,0.2,0.6c-0.1,0.2-0.3,0.3-0.6,0.2l-2,0.1h-0.5
		c-0.6,1.2-0.9,1.9-0.9,2.1s0,0.3-0.1,0.4c-0.1,0-0.1,0.1-0.1,0.2v0.1c0,0,0,0.2-0.1,0.5c0.4,0,0.9,0,1.4,0c0.5,0,0.8,0,0.9,0.1
		c0.1,0,0.3,0.1,0.4,0.3c0.2,0.2,0.3,0.4,0.2,0.6c-0.1,0.2-0.3,0.3-0.6,0.2l-1.4,0.1l-1.3,0c-1.1,3.7-1.7,5.8-1.7,6.2
		c0,0.4,0,0.7,0,0.8c0,0.1-0.1,0.2-0.2,0.2c-0.4,0.1-0.7-0.1-0.9-0.5c-0.2-0.5-0.1-1.1,0-2c0.2-0.4,0.2-0.7,0.2-0.9
		c0.1-0.3,0.4-1.6,1.1-3.7c-1.5,0-2.7,0-3.6,0c-1.1,3.7-1.7,5.7-1.7,6.1c0,0.4,0,0.6,0,0.7c0,0.1-0.1,0.2-0.2,0.2
		c-0.4,0.1-0.7-0.1-0.9-0.5c-0.2-0.5-0.1-1.1,0-2c0.2-0.4,0.2-0.7,0.2-0.9c0.1-0.4,0.4-1.6,1.1-3.7h-1c-0.3,0-0.6,0-0.8-0.1
		c-0.3,0-0.5-0.1-0.6-0.3c-0.2-0.2-0.2-0.4-0.1-0.4c0.3-0.2,1.3-0.3,3-0.4c0.2-0.5,0.3-0.8,0.3-0.9c0.1,0,0.2-0.2,0.2-0.5
		S5.6,11,5.7,10.9z M6.6,12.1c-0.1,0-0.1,0.1-0.1,0.2v0.1c0,0.1,0,0.3-0.1,0.6l3.6-0.1c0.1-0.4,0.2-0.7,0.3-0.7
		c0.1,0,0.2-0.2,0.2-0.5s0.1-0.6,0.2-0.7l0.2-0.9c0-0.1,0.1-0.2,0.2-0.4c-1.5,0-2.6,0-3.5,0c-0.6,1.2-0.9,1.9-0.9,2
		C6.7,11.9,6.6,12,6.6,12.1z"/>
	<path class="st0" d="M21.1,5.7c0.2-0.3,0.4-0.5,0.4-0.8c0-0.2,0.1-0.5,0.2-0.7c0.1-0.3,0.3-0.4,0.4-0.3c0.3,0,0.6,0.1,0.8,0.3
		c0,0,0,0.1,0.1,0.1C23,4.4,23,4.4,23,4.4c0,0,0,0.1,0.1,0.1c0,0.1,0.1,0.1,0.1,0.2c0,0,0,0.1,0,0.2c0,0.1,0,0.2,0,0.2
		c0,0.1,0,0.2,0,0.3c0,0.1,0,0.3,0,0.5c0,0.2-0.1,0.5-0.2,1c-0.1,0.5-0.1,0.8-0.1,0.8c-0.4,1.3-0.8,3-1.2,5.1
		c-0.3,2.1-0.4,3.2-0.3,3.4c0.1,0.1,0.2,0.1,0.3,0c0.1-0.1,0.2-0.3,0.4-0.6c0.2-0.3,0.5-0.8,1-1.4c0.1-0.2,0.4-0.6,0.8-1.3
		c1.5-2.5,2.9-4.9,4.1-7c0.1-0.2,0.3-0.5,0.6-1c0.5-0.9,0.9-1.4,1.1-1.5c0.3-0.3,0.6-0.3,1,0.1C31,3.9,31.1,4.4,31.2,5
		c0,1-0.3,2.5-0.9,4.4c-0.2,1-0.5,2.1-0.9,3.3c0,0.2-0.1,0.5-0.2,0.9C29,14.5,29,15,29,15.1c-0.2,0.4-0.3,1.2-0.3,2.4
		c-0.1,1-0.2,1.5-0.3,1.6c-0.2-0.1-0.3,0-0.3,0.1c0,0.1-0.1,0.2-0.3,0.1c-0.2-0.1-0.3-0.2-0.4-0.3c-0.2-0.4-0.2-1-0.2-1.9
		c0.5-2.7,1-5.4,1.6-8.2c0.3-1.2,0.6-2.3,0.8-3.3c0-0.1-0.1,0-0.2,0.2c-0.1,0.2-0.2,0.3-0.2,0.4c-0.5,0.7-0.8,1.1-0.9,1.3
		c-0.1,0.2-0.3,0.5-0.4,0.8c-0.2,0.3-0.3,0.6-0.4,0.8c-0.1,0.2-0.4,0.7-0.7,1.3c-0.4,0.7-0.6,1.1-0.8,1.4c-0.1,0.2-0.4,0.6-0.6,1.2
		c-0.1,0.4-0.4,0.8-0.8,1.3L24,15.3c0,0.1-0.2,0.3-0.5,0.8c-0.3,0.4-0.7,0.9-1.1,1.3c-0.4,0.4-0.7,0.7-1,0.8c-0.3,0.1-0.6,0-1.1-0.4
		c-0.3-0.3-0.5-0.8-0.5-1.3c-0.1-0.5,0-1.3,0.1-2.3c0.1-0.5,0.2-1.2,0.4-2c0.3-1.7,0.5-2.7,0.6-2.9c0-0.3,0-0.5,0-0.5
		c-0.1,0-0.1,0.1-0.3,0.3c-1.2,1.9-1.9,3.4-2.4,4.2c-1.1,2-1.9,3.6-2.4,4.5c-0.5,1-0.8,1.5-0.9,1.6c-0.2,0-0.5-0.2-0.9-0.6
		c-0.1-0.2-0.1-0.4,0-0.5c0-0.1,0.2-0.5,0.5-1.2c0.5-0.9,0.8-1.4,0.9-1.5c0.2-0.2,0.3-0.5,0.3-0.8c0.2-0.3,0.5-0.8,0.8-1.5
		c0.6-0.9,1.1-1.8,1.6-2.9c0.3-0.5,0.6-1,0.9-1.5c0.3-0.5,0.5-0.9,0.7-1.2c0.2-0.3,0.3-0.5,0.4-0.7c0.1-0.2,0.2-0.3,0.3-0.5
		C20.8,6,21,5.8,21.1,5.7z"/>
	<path class="st0" d="M30.5,17.1c-0.1-0.1-0.1-0.2-0.1-0.3s0-0.2-0.1-0.3c-0.3-0.3,0.1-1.4,1.2-3.3c0.1-0.1,0.2-0.2,0.3-0.5
		c0.1-0.2,0.2-0.4,0.3-0.4c0-0.1,0-0.1,0.1-0.2c0-0.1,0.1-0.1,0.2-0.1V12c0-0.1,0.2-0.5,0.7-1c1.3-1.4,2.3-1.8,3-1.2
		c0.1,0.1,0.7,0.7,1.9,1.7l-0.4,1.1c-0.3,1-0.2,1.9,0.3,2.7c0.1,0.2,0.2,0.3,0.4,0.5c0.2,0.1,0.4,0.2,0.7,0.3
		c0.3,0.1,0.5,0.2,0.5,0.5s-0.1,0.5-0.4,0.5c-1,0.1-1.9-0.5-2.6-1.8c-0.2-0.3-0.3-0.6-0.4-1c-0.2,0.3-0.5,0.6-0.7,0.9
		c-2.1,2.1-3.7,2.9-4.7,2.2C30.7,17.3,30.6,17.2,30.5,17.1z M36.3,11.8c-0.3-0.6-0.6-0.9-0.9-0.9c-0.3,0-0.8,0.4-1.5,1.2
		c-0.7,0.8-1.3,1.7-1.8,2.8l-0.6,1.3c0,0.2,0.2,0.2,0.6,0c0.4-0.2,0.7-0.4,1-0.6c1.3-1.1,2.2-2.1,2.8-2.9L36.3,11.8z"/>
	<path class="st0" d="M45,9.8c0.1,0,0.2,0,0.3,0.1c0.3,0.3,0.4,0.6,0.4,0.8c0,0.3-0.2,0.7-0.5,1.3c-0.3,0.8-0.5,1.3-0.7,1.5
		c-0.5,1.1-0.9,2.1-1.3,2.9c-0.4,0.8-0.7,1.4-0.9,1.9c-1,1.5-1.6,2.5-2,3c-0.8,0.7-1.5,1.2-2,1.3c-0.5,0.1-1.1,0.1-1.7-0.1
		c-0.6-0.2-1-0.5-1.1-0.9c0-0.1,0-0.3,0.2-0.4s0.3-0.1,0.4,0c1.2,0.8,2.4,0.4,3.5-1.2c0.8-1.3,1.3-2.2,1.6-2.8
		c-0.3-0.1-0.6-0.4-0.9-0.8C40.1,16,40,15.7,40,15.5v-0.2c-0.2,0-0.3-0.4-0.4-1.2c-0.1-0.8-0.1-1.4-0.1-1.8c0-0.4,0.1-1.1,0.1-2.1
		c0-0.3,0.1-0.6,0.2-0.7c0.5-0.2,0.9,0.1,0.9,0.8c0,0.4,0,1,0,1.7c-0.1,2.3,0.1,3.7,0.8,4.2c0.3-0.7,0.5-1.2,0.6-1.4
		c0.1-0.2,0.2-0.4,0.2-0.5c0-0.1,0.1-0.2,0.1-0.3c0.1-0.1,0.2-0.4,0.4-0.9c0.4-1.1,0.6-1.8,0.7-1.9c0.1-0.2,0.2-0.3,0.2-0.4
		c0.1-0.1,0.1-0.2,0.1-0.3c0-0.1,0.1-0.1,0.1-0.2c0-0.1,0.1-0.1,0.1-0.2c0,0,0.1-0.1,0.1-0.1c0.1-0.1,0.1-0.1,0.2-0.2
		C44.8,9.8,44.9,9.8,45,9.8z"/>
	<path class="st0" d="M49.6,4.7c0-0.1,0.1-0.1,0.3-0.1c0.2,0,0.3,0.1,0.4,0.2c0.1,0,0.2,0.1,0.3,0.3c0.1,0.2,0.1,0.4,0.1,0.5
		c0,0.1-0.1,0.3-0.1,0.4c-0.1,0.1-0.2,0.3-0.3,0.4c-0.1,0.2-0.2,0.3-0.2,0.4c-0.2,0.7-0.4,1.2-0.5,1.4c-0.2,0.3-0.3,0.6-0.3,0.7
		C49.2,9,49,9.3,48.8,9.8c-0.2,0.4-0.4,1-0.6,1.5c-0.2,0.6-0.4,1-0.5,1.3c0,0,0.1-0.1,0.1-0.1c0.1-0.1,0.1-0.1,0.1-0.1
		c0,0,0.2-0.2,0.6-0.5c0.4-0.3,1-0.6,1.6-1.2c0.7-0.5,1.1-0.8,1.2-1c0.1-0.1,0.3-0.2,0.5-0.1c0.2,0.1,0.3,0.1,0.4,0.2
		c0.1,0.1,0.1,0.3,0.1,0.5c0.1,0.3-0.2,0.7-1,1.1c-0.4,0.3-0.7,0.5-1,0.8c-0.4,0.3-0.8,0.5-1.2,0.9c-0.4,0.3-0.6,0.5-0.7,0.6
		c0.7,1,1,1.5,1.1,1.6c0,0.1,0.1,0.2,0.2,0.3c0.1,0.2,0.2,0.3,0.2,0.3c0,0.1,0.1,0.1,0.2,0.3c0.1,0.1,0.2,0.2,0.2,0.2
		c0.1,0,0.1,0.1,0.2,0.2c0.1,0.1,0.4,0.3,0.6,0.4c0.1,0.1,0.2,0.2,0.2,0.4c-0.1,0.2-0.1,0.3-0.2,0.3c-0.1,0-0.3,0.1-0.6,0.2
		c-0.3,0-0.6-0.2-1.1-0.5c-0.4-0.2-1.2-1.2-2.4-2.9c-0.1,0-0.1-0.1-0.2-0.2c-0.3,0.6-0.4,1-0.4,1.2c0,0.1-0.1,0.4-0.2,0.9
		c-0.1,0.4-0.2,0.7-0.3,0.9c0,0.5-0.3,0.6-0.7,0.3C45.1,17.5,45,17.3,45,17c0-0.4,0.2-0.9,0.4-1.4c0.1-0.7,0.3-1.2,0.5-1.6
		c0.7-2,1.1-3.2,1.1-3.4c0.1-0.3,0.3-0.7,0.6-1.4c0.3-0.6,0.5-1.1,0.6-1.3c0.1-0.3,0.3-0.7,0.5-1.3c0.2-0.6,0.4-1,0.5-1.2
		C49.2,5.3,49.4,5,49.6,4.7z"/>
	<path class="st0" d="M55.8,7.2c0,0.2-0.3,0.8-0.8,1.9c-0.5,1.1-0.8,1.7-0.9,2c0,0,0.2-0.1,0.4-0.2c0.4-0.3,0.8-0.6,1.2-0.8
		c1.6-0.9,2.5-0.7,2.7,0.6c0,0.2-0.1,0.6-0.3,1.2c-0.2,0.5-0.4,0.9-0.6,1l-0.3,0.2c0,0.2-0.1,0.3-0.3,0.4c-0.2,0.2-0.3,0.4-0.3,0.4
		v0.1l-0.7,0.4c-0.2,0.2-0.3,0.3-0.4,0.3c-0.1,0-0.2,0.1-0.2,0.1c0,0-0.1,0-0.1,0.1c-0.1,0.1-0.2,0.1-0.2,0.2c0,0.1,0.2,0.4,0.7,1
		c0.5,0.5,0.8,0.9,1,1c0.2,0.1,0.3,0.3,0.4,0.5c0.1,0.2,0.1,0.4,0,0.6c0,0.1-0.2,0.1-0.5,0.1c-0.3,0-0.5-0.1-0.6-0.1
		c-0.1-0.1-0.2-0.1-0.3-0.2c-0.1-0.1-0.2-0.1-0.2-0.2l-1-1.1c-0.1-0.1-0.4-0.5-0.9-1c-0.3-0.5-0.6-0.7-0.8-0.7
		c-0.3,1.2-0.6,2-0.7,2.5c-0.2,0.4-0.4,0.5-0.6,0.5c-0.2,0-0.3-0.1-0.4-0.2c-0.1-0.2-0.2-0.4-0.2-0.6c-0.1-0.4,0.3-1.8,1.2-4.1
		c0-0.1,0.1-0.3,0.1-0.4c0.1-0.2,0.1-0.3,0.2-0.5c0.1-0.2,0.1-0.4,0.3-0.8c0.1-0.4,0.6-1.6,1.5-3.7c0.3-0.5,0.7-1.3,1.2-2.3
		s0.9-1.6,1.1-1.8c0.2-0.2,0.3-0.3,0.5-0.3s0.3,0.1,0.5,0.2c0.1,0.1,0.2,0.3,0.2,0.6c0,0.2-0.2,0.6-0.5,1.2
		c-0.1,0.3-0.3,0.6-0.4,0.8c-0.2,0.2-0.3,0.5-0.4,0.7C56,7.1,55.9,7.2,55.8,7.2z M57.2,11c0-0.1-0.5,0.1-1.3,0.5
		c-0.5,0.3-0.9,0.6-1.4,1c-0.5,0.4-0.8,0.8-1.1,1.1c-0.1,0.2,0,0.4,0.2,0.5c0.2,0.2,0.4,0.2,0.6,0.1c0.3-0.2,0.7-0.5,1.3-1.1
		c0.6-0.5,1-0.9,1.2-1.1c0.1-0.1,0.2-0.3,0.3-0.6C57.2,11.3,57.2,11.1,57.2,11z"/>
	<path class="st0" d="M59.9,13.6c-0.4,1-0.5,1.7-0.5,2.1c0,0.5,0.1,0.8,0.2,1c0.1,0.2,0.4,0.3,0.7,0.3c0.4,0,0.6,0,0.9-0.1
		c0.2-0.1,0.5-0.3,1-0.6l0.8-0.4c0.1,0,0.1,0,0.2-0.1c0.1-0.1,0.3,0,0.5,0.1c0.2,0.1,0.3,0.2,0.3,0.4c0,0.1-0.2,0.3-0.4,0.6
		c-0.2,0.3-0.4,0.4-0.5,0.4c-0.2,0.1-0.3,0.2-0.3,0.2h0c-0.1,0.2-0.3,0.3-0.4,0.3h-0.2c-0.1,0.1-0.3,0.2-0.6,0.4
		c-0.3,0.1-0.7,0.2-1,0.2c-0.7,0-1.2-0.2-1.6-0.7c-0.4-0.5-0.6-1.1-0.6-1.9c0-1.1,0.4-2.3,1.1-3.5c1-1.8,2-2.7,3.2-2.7
		c0.3,0,0.6,0.1,1,0.2c0.5,0.2,0.8,0.6,0.9,1.1c0.1,0.4,0,0.8,0,1.1c-0.4,1.1-1,1.9-1.8,2.4c-0.2,0.1-0.5,0.2-0.9,0.2
		c-0.7,0-1.2-0.2-1.5-0.7L59.9,13.6z M60.9,12.6c0,0.2,0.1,0.4,0.2,0.5c0.1,0.1,0.2,0.2,0.4,0.2c0.4,0,0.8-0.2,1.2-0.7
		c0.3-0.4,0.5-0.9,0.6-1.3c0.1-0.4,0-0.7-0.1-0.8c-0.4-0.2-0.9,0-1.5,0.6c-0.4,0.4-0.7,0.7-0.9,1l-0.3,0.5c0.1,0,0.2-0.1,0.4-0.1
		C60.8,12.6,60.9,12.6,60.9,12.6z"/>
	<path class="st0" d="M67.9,12.8c1.1-1,2.2-1.8,3.2-2.2c1-0.5,1.8-0.7,2.4-0.7c0.2,0,0.3,0.1,0.4,0.2c0.1,0.1,0.2,0.3,0.3,0.4
		c0.1,0.2,0.1,0.3,0.1,0.4c0,0.1-0.1,0.2-0.2,0.3c-0.1,0.1-0.3,0.1-0.5,0.2c0.1,0.1,0.1,0.3,0.2,0.4c0.1,0.2,0.1,0.3,0.2,0.4
		c0,0.1,0.1,0.2,0.1,0.3c0,0.2-0.2,0.5-0.5,1s-0.6,0.8-0.7,1.1c-0.1,0.2-0.2,0.5-0.2,0.8c0,0.5,0.2,0.8,0.7,0.8
		c0.5,0,1.3-0.5,2.4-1.4v0.7c-1.8,2-3.2,3.1-4,3.1c-0.3,0-0.5-0.1-0.6-0.3c-0.1-0.2-0.2-0.5-0.2-0.8c0-0.6,0.2-1.4,0.6-2.5
		c-1.1,1.2-1.9,2-2.4,2.5c-0.5,0.5-0.9,0.7-1.3,0.7c-0.2,0-0.4-0.1-0.6-0.4c-0.2-0.3-0.5-0.6-0.6-1.1s-0.3-0.9-0.3-1.4
		c0-0.3,0-0.6,0.1-0.9c0.1-0.2,0.2-0.5,0.4-0.7C67.2,13.5,67.5,13.2,67.9,12.8z M73.2,11.6c-1.9,0.9-3.2,1.6-4.1,2.2
		c-0.8,0.6-1.2,1.2-1.2,1.9c0,0.2,0,0.4,0.1,0.6c0.1,0.1,0.2,0.2,0.3,0.2c0.1,0,0.2-0.1,0.4-0.2c0.8-0.5,1.5-1,2.1-1.8
		C71.5,13.8,72.3,12.8,73.2,11.6z"/>
	<path class="st0" d="M79.7,2.5c0.9-0.2,1.7-0.3,2.4-0.2C82.9,2.3,83.8,2.6,85,3c0.8,0.3,1.6,0.9,2.4,1.7c0.8,0.8,1.3,1.7,1.6,2.6
		c0.1,0.3,0.2,0.7,0.2,1.3c0,0.5,0,0.9-0.1,1.1c-0.1,0.2-0.1,0.3,0,0.4c0,0.1-0.1,0.3-0.2,0.6c-0.1,0.3-0.2,0.6-0.2,0.7
		c0,0.5-0.2,1.2-0.5,2c-0.3,0.8-0.6,1.4-0.9,1.9c-0.1,0-0.1,0-0.2,0.1c0,0.1-0.1,0.2-0.2,0.4c0,0-0.1,0.1-0.3,0.3
		c-0.1,0.2-0.2,0.3-0.3,0.3c0,0.1-0.1,0.2-0.1,0.3c-0.1,0.1-0.1,0.1-0.2,0.1c0,0,0,0.1-0.1,0.1c-0.3,0.4-0.8,0.9-1.6,1.6
		c-0.8,0.7-1.5,1.1-2,1.4c-0.1,0.1-0.4,0.2-0.9,0.5c-0.1,0.1-0.5,0.2-1.3,0.2c-0.8,0.1-1.2,0.1-1.4,0.1c-0.6,0.1-1.3,0-2.3-0.3
		c-0.2,0-0.4-0.1-0.5-0.2c-0.1-0.1-0.2-0.2-0.2-0.2c0,0-0.1-0.1-0.1-0.2c-0.1-0.1-0.1-0.2-0.2-0.2c-0.3-0.3-0.3-0.7-0.3-1.2
		c0.1-0.4,0.3-0.7,0.7-0.8c0.1,0,0.2,0,0.4,0.1c0-0.4,0-0.8,0.1-1.1c0.1-0.3,0.4-1.3,0.9-2.8c0.5-1.5,0.9-2.8,1.2-3.9
		c0.3-1.1,0.6-1.8,0.8-2.3c0-0.1,0.1-0.2,0.2-0.5c0.2-0.7,0.4-1.3,0.6-1.9l0.2-0.7L80,4.2c-0.3,0.1-0.5,0.1-0.6,0
		c-0.1,0-0.3,0-0.5-0.2c-0.2-0.2-0.4-0.4-0.4-0.5L78.4,3C78.4,2.9,78.8,2.7,79.7,2.5z M77.9,18.3c0,0.1,0,0.1,0,0.2
		c0.3,0.1,0.5,0.2,0.7,0.1c0.2,0,0.5-0.1,0.8-0.1c0.8,0,1.3-0.1,1.5-0.3c0.8-0.5,1.6-1.1,2.4-1.8c0-0.1,0.2-0.2,0.5-0.3
		c0.1-0.1,0.3-0.3,0.7-0.7c0.4-0.4,0.6-0.6,0.7-0.7c0-0.1,0-0.2,0.1-0.3c0-0.1,0.1-0.2,0.1-0.3c0.2-0.2,0.4-0.7,0.8-1.4
		c0.4-0.7,0.6-1.4,0.7-1.9c0.5-2.3,0.1-4.2-1.5-5.5c-0.3-0.3-0.8-0.6-1.5-0.9c-0.7-0.3-1.1-0.5-1.2-0.4c-0.1,0-0.3,0.4-0.5,1
		c-0.3,0.7-0.6,1.6-1.1,3c-0.5,1.3-0.8,2.2-1,2.8c-0.1,0.2-0.1,0.5-0.3,0.9c-0.3,0.8-0.4,1.2-0.4,1.3c-0.4,0.7-0.8,1.8-1,3.4
		c0,0.1-0.1,0.3-0.1,0.4c0,0.1-0.1,0.3-0.1,0.4c0,0.1,0,0.2-0.1,0.3c0,0.1,0,0.2-0.1,0.3c0,0.1,0,0.1-0.1,0.2
		C78,18.3,78,18.3,77.9,18.3z"/>
	<path class="st0" d="M88.9,16l0.1-0.5c0-0.1,0-0.3,0.2-0.7c0.3-0.7,0.7-2,1.3-3.6c0-0.2,0.1-0.3,0.4-0.3c0.2-0.1,0.4,0,0.6,0.2
		c0.3,0.2,0.5,0.4,0.6,0.7c0.2,0.2,0.2,0.5-0.1,1.1c-0.2,0.5-0.4,1-0.5,1.5c-0.2,0.4-0.3,0.7-0.4,0.9c-0.1,0.2-0.1,0.5-0.2,0.9
		s-0.2,0.7-0.2,0.8c-0.1,0.6-0.4,0.9-0.7,1.1c-0.3,0.1-0.6,0-0.9-0.3c-0.2-0.2-0.3-0.5-0.3-0.9C88.8,16.5,88.8,16.2,88.9,16z
		 M91.1,8.4C91.1,8.2,91,8,91,7.9s0-0.2,0.1-0.3c0.1-0.1,0.2-0.3,0.3-0.7c0.3-0.6,0.5-1,0.6-1c0.2-0.1,0.4-0.1,0.8,0
		c0.3,0.1,0.6,0.3,0.7,0.6c0.3,0.6,0.1,1.2-0.4,1.8c-0.2,0.3-0.5,0.5-0.9,0.6C92,9,91.7,9,91.6,8.8C91.4,8.7,91.2,8.6,91.1,8.4z"/>
	<path class="st0" d="M98.2,17.5L98,19.7c-0.1,0.6-0.2,1-0.2,1.1c-0.1,0.1-0.3,0-0.6-0.1c-0.3-0.1-0.6-0.3-0.7-0.5
		c-0.2-0.2-0.2-0.3-0.3-0.5c0-0.1,0-0.4,0-0.8c0.1-0.2,0.1-0.6,0.1-1c0-0.5,0.1-1.2,0.3-2.1c0.2-0.9,0.4-1.5,0.4-1.9
		c0-0.1,0.1-0.4,0.2-0.6c0.1-0.3,0.1-0.5,0.2-0.6c-0.3,0-0.8,0.1-1.5,0.2c-0.7,0.1-1,0.2-1.1,0.2c-0.2,0.1-0.4,0.7-0.6,1.9
		c-0.2,0.7-0.3,1.4-0.3,2.1c0,0.8,0,1.3,0.1,1.6c0.1,0.3,0.1,0.6-0.1,0.9c-0.2,0.3-0.3,0.5-0.5,0.6c-0.3,0-0.6-0.2-0.9-0.7
		c-0.3-0.5-0.4-1.1-0.4-1.9c-0.1-1.1,0.2-3,0.9-5.5c0.2-0.7,0.6-1.7,1.1-3c0.5-1.3,0.9-1.9,1-2c0.1,0,0.1,0,0.1,0c0,0,0-0.1,0-0.1
		c0,0,0-0.1,0.1-0.2c0.1-0.1,0.1-0.2,0.2-0.4c0.1-0.2,0.2-0.3,0.2-0.4c0.3-0.4,0.7-0.9,1.2-1.3s0.9-0.7,1.2-0.9
		c0.3-0.1,0.6-0.2,0.9-0.2c0.3,0,0.6,0.1,1,0.4s0.6,0.6,0.7,0.9c0.2-0.3,0.6-0.6,1-0.9c0.4-0.3,0.7-0.5,0.7-0.5
		c0.6-0.3,1.1-0.4,1.5-0.4s1,0.3,1.6,0.8c0.2,0.2,0.3,0.4,0.4,0.4c0,0.1,0,0.2,0,0.4c-0.1,0.3-0.3,0.8-0.8,1.5
		c-0.5,0.7-0.8,1.1-0.9,1.1c-0.2,0.1-0.3,0-0.4-0.1c-0.1-0.1-0.1-0.2-0.1-0.4c0-0.2-0.1-0.3-0.3-0.5c0-0.3,0.1-0.5,0.2-0.6
		c0.1-0.1,0.1-0.3,0-0.4c0-0.1-0.1-0.2-0.3-0.2c-0.1,0.1-0.4,0.3-0.7,0.5c-0.3,0.3-0.5,0.5-0.5,0.5c-0.1,0.2-0.2,0.4-0.4,0.7
		c-0.3,0.4-0.4,0.6-0.4,0.8s0,0.2-0.1,0.2c-0.1,0.2-0.2,0.4-0.3,0.7c-0.1,0.4-0.3,0.6-0.4,0.8h0c-0.3,0.6-0.4,1-0.4,1.1
		c0,0.1,0.2,0.1,0.6,0c0.4,0,0.7-0.1,1-0.2c0.3-0.1,0.7-0.1,1,0c0.2,0.1,0.3,0.4,0.4,0.7c0.1,0.4,0.1,0.6,0.1,0.7
		c-0.1,0.2-0.5,0.3-1.4,0.5c-0.2,0-0.5,0.1-0.9,0.2c-0.8,0.2-1.3,0.3-1.3,0.4c-0.1,0-0.2,0.1-0.2,0.3c0,0.2,0,0.4-0.1,0.6
		c-0.1,0.2-0.2,0.6-0.4,1.2c-0.2,0.6-0.3,1-0.3,1.2c-0.1,0.1-0.2,0.4-0.2,0.8C98.3,17.1,98.2,17.3,98.2,17.5z M98.2,6.1L98.2,6.1
		c-0.1,0.1-0.3,0.3-0.6,0.7c-0.3,0.4-0.6,0.9-0.9,1.3c-0.1,0.3-0.5,1.1-1.1,2.6l-0.2,0.5l0.4,0c0.1,0,0.5,0,1-0.1
		c0.5-0.1,0.9-0.2,1.2-0.2l0.1-0.2c0.4-1.1,0.7-2,1-2.6c0.2-0.5,0.3-0.9,0.3-1c0-0.1,0.1-0.4,0.2-0.7c0.1-0.3,0.1-0.5,0.1-0.6
		c0-0.1-0.2-0.1-0.4-0.1c-0.2,0-0.5,0.1-0.7,0.2C98.3,5.9,98.2,6,98.2,6.1z"/>
	<path class="st0" d="M107.1,9.2c1.7,0,2.5,0.7,2.5,2.1c0,0.7-0.3,1.5-1,2.3c-0.7,0.8-1.3,1.2-2,1.2c-0.7,0-1.3-0.2-1.7-0.6
		c-0.3,0.5-0.4,0.9-0.4,1.2c0,0.3,0,0.5,0,0.6c0,0.1,0,0.2,0.1,0.4c0.1,0.3,0.3,0.4,0.5,0.4c0.3,0,0.5,0,0.7-0.1
		c0.2-0.1,0.3-0.1,0.4-0.1c0.1,0,0.2-0.1,0.4-0.3c0.2-0.1,0.3-0.2,0.4-0.3c0.1-0.1,0.3-0.1,0.4-0.2c0.1-0.1,0.2-0.1,0.2-0.2
		c0.1-0.1,0.2-0.1,0.2-0.1c0.2,0,0.4,0.1,0.6,0.2c0.2,0.1,0.3,0.3,0.3,0.5c0,0.2-0.1,0.4-0.4,0.8c-0.3,0.3-0.5,0.6-0.8,0.7l-0.2,0.1
		c-0.1,0.2-0.3,0.3-0.4,0.3h-0.2c-0.1,0.1-0.3,0.2-0.6,0.4c-0.3,0.1-0.7,0.2-1,0.2c-1.7,0-2.6-1-2.6-2.9c0-1.1,0.4-2.3,1.1-3.6
		C104.8,10.2,105.9,9.2,107.1,9.2z M105.4,12.7c0.1,0,0.1,0,0.2,0c0.1,0,0.2,0.1,0.3,0.3c0.1,0.2,0.3,0.3,0.5,0.3
		c0.4,0,0.8-0.2,1-0.5c0.3-0.4,0.4-0.7,0.4-0.9c0-0.5-0.1-0.8-0.4-0.8c-0.3,0-0.5,0.1-0.9,0.4c-0.3,0.2-0.6,0.6-0.8,0.9L105.4,12.7z
		"/>
	<path class="st0" d="M112.6,9.2c0.3,0,0.6,0.1,0.7,0.2c0.3,0.3,0.1,1.2-0.7,2.7c-0.3,0.5-0.3,0.8-0.2,0.8c0.2-0.3,0.6-0.7,1.2-1.2
		c0.6-0.5,1-0.8,1.2-0.9c0.2-0.1,0.3-0.2,0.5-0.2c0.2-0.1,0.3-0.1,0.3-0.1c0.3-0.2,0.7-0.2,1.1-0.2c0.4,0,0.7,0.2,0.8,0.4
		c0,0.1,0.1,0.3,0.3,0.4l0.1,0.1c0,0.1-0.1,0.3-0.3,0.5c-0.2,0.2-0.4,0.3-0.6,0.3c-0.2,0-0.5,0.1-0.8,0.2c-0.3,0.1-0.6,0.3-0.9,0.4
		c-0.3,0.2-0.5,0.3-0.6,0.4c-0.1,0.1-0.3,0.2-0.5,0.3c-0.4,0.3-0.8,0.6-1.1,1c-0.4,0.4-0.6,0.7-0.7,0.8c-0.1,0.1-0.2,0.4-0.3,0.8
		c-0.1,0.4-0.2,0.7-0.2,0.8c-0.1,0.2-0.2,0.5-0.3,0.7c-0.2,0.2-0.3,0.3-0.5,0.4c-0.2,0-0.4,0-0.6-0.3c-0.5-0.3-0.7-0.7-0.6-1.1
		c0.1-0.4,0.2-1.1,0.5-2.2c0-0.4,0.3-1.2,0.7-2.4c0.4-1.2,0.8-2,1.1-2.4C112,9.3,112.3,9.2,112.6,9.2z"/>
	<path class="st0" d="M121.1,14.5c-0.4,0-0.7,0-0.8-0.1c-0.2-0.1-0.3,0-0.4,0.3l-0.1,0.5c-0.1,0.4,0,0.7,0.3,1
		c0.1,0.1,0.3,0.2,0.6,0.2c0.3,0,0.5-0.1,0.7-0.3c0.2-0.1,0.4-0.3,0.6-0.6c0.2-0.2,0.4-0.4,0.5-0.5c0.1-0.3,0.5-0.3,1.1-0.2
		c0.3,0.2,0.3,0.7-0.1,1.5c-0.1,0.1-0.3,0.4-0.7,0.8c-0.4,0.4-0.7,0.6-0.9,0.7c-0.8,0.4-1.6,0.4-2.5,0.1c-1.1-0.4-1.6-1.6-1.4-3.3
		c0-0.4,0-0.7,0-0.9c-0.1-0.2-0.1-0.3-0.2-0.4c-0.1-0.1-0.2-0.2-0.3-0.3c-0.2-0.2-0.4-0.4-0.4-0.5c0-0.1,0-0.2,0.1-0.4
		c0.1-0.2,0.1-0.3,0.2-0.3c0.3-0.1,0.5-0.2,0.6-0.2c0.1,0,0.1,0,0.3,0.1c0.1,0.1,0.2,0.1,0.2,0.2c0.1,0.1,0.2,0,0.5-0.5
		c0.1-0.1,0.1-0.3,0.2-0.4c0.2-0.3,0.5-0.6,0.9-0.9c0.4-0.3,0.6-0.5,0.9-0.6c0.2-0.1,0.5-0.2,0.9-0.3c0.4-0.1,0.7-0.1,0.9-0.1
		c0.5,0,1,0.4,1.5,0.9c0.3,0.2,0.4,0.5,0.5,1c0,0.5,0,0.9-0.2,1.2c-0.1,0.2-0.4,0.6-0.9,1c-0.5,0.5-1,0.8-1.3,0.9
		C121.9,14.4,121.6,14.5,121.1,14.5z M122.7,11.2c-0.2-0.2-0.5-0.2-0.9,0.1c-0.1,0-0.4,0.2-0.6,0.4c-0.3,0.2-0.5,0.4-0.7,0.7
		c-0.2,0.2-0.2,0.4-0.2,0.4c0,0,0,0.1,0.1,0.1c0.1,0,0.1,0,0.2,0c0.1,0,0.2,0,0.2,0c0.1,0,0.2,0,0.4-0.1c0.2,0,0.4-0.1,0.6-0.3
		c0.2-0.1,0.4-0.4,0.7-0.7C122.7,11.5,122.8,11.3,122.7,11.2z"/>
	<path class="st0" d="M130.5,11l0.6-0.2c0.2,0,0.5,0.1,0.7,0.2c0.2,0.2,0.4,0.3,0.4,0.5c0,0,0,0.1,0.1,0.2c0.3,0.3,0.4,0.6,0.4,1
		c0,0.4-0.1,1-0.3,2c-0.2,1-0.4,1.6-0.4,1.8c0,0.2,0,0.4,0.1,0.6c0.1,0.2,0.1,0.3,0.1,0.4c0,0.1-0.1,0.2-0.2,0.3
		c-0.1,0.1-0.3,0.2-0.6,0.2c-0.3,0-0.6-0.2-0.8-0.5c-0.3-0.3-0.4-0.7-0.4-1.2c0-0.5,0.2-1.3,0.5-2.6c0-0.1,0-0.2,0-0.2
		c0-0.1,0-0.1,0-0.2c0,0,0-0.1,0-0.1c0,0,0-0.1,0-0.1c0-0.1,0-0.1-0.1-0.1s-0.2,0-0.3,0.1c-0.1,0.1-0.2,0.2-0.4,0.2
		c-0.1,0.1-0.3,0.2-0.5,0.4c-0.2,0.2-0.4,0.3-0.5,0.4c-0.1,0.1-0.5,0.4-0.9,0.8c-1.2,1.1-1.9,1.6-2,1.6c-0.1,0-0.3-0.1-0.7-0.3
		c-0.3-0.2-0.5-0.4-0.5-0.7c0-0.2,0.1-0.8,0.4-1.6c0.3-0.8,0.6-1.6,1-2.4c0-0.1,0.1-0.4,0.2-0.8c0.1-0.7,0.3-1.1,0.6-1.1
		c0.3,0,0.6,0.1,0.9,0.4c0.3,0.3,0.4,0.6,0.4,0.9s-0.1,0.7-0.2,1.1c-0.1,0.4-0.2,0.7-0.3,0.7c0,0,0.1-0.1,0.1-0.1
		c0.1-0.1,0.4-0.3,0.7-0.5c0.5-0.3,0.9-0.6,1.2-0.8L130.5,11z"/>
	<path class="st0" d="M138.5,17.5l-0.4,0.1c-0.1,0-0.3,0-0.7,0.1c-0.4,0.1-0.6,0.2-0.7,0.2c-0.4,0.2-1,0.1-1.7-0.1
		c-0.1,0-0.3-0.1-0.6-0.4c-0.3-0.3-0.5-0.5-0.6-0.7c-0.5-0.7-0.3-2,0.5-3.9c0.2-0.3,0.4-0.8,0.8-1.4c0.4-0.6,0.6-0.9,0.8-1
		c0.2-0.1,0.5-0.2,0.7-0.3c0.2-0.1,0.5-0.2,0.9-0.3c0.4-0.1,0.6-0.1,0.7-0.1c0.4,0,0.9,0.3,1.4,0.7c0.5,0.4,0.7,0.8,0.5,1
		c0,0.1-0.1,0.2-0.2,0.5c-0.1,0.3-0.3,0.5-0.4,0.6c-0.1,0.1-0.3,0.1-0.6,0c-0.3-0.1-0.5-0.3-0.5-0.6c0-0.1-0.2-0.3-0.6-0.5
		c-0.2,0-0.5,0.4-1.1,1.2c-0.4,0.4-0.6,0.7-0.7,1.1c-0.1,0.3-0.1,0.6-0.2,0.8c0,0.2-0.1,0.4-0.1,0.5c0,0.1,0,0.3,0,0.5
		c0.1,0.2,0.1,0.3,0.2,0.4c0.3,0,0.7,0,1.3-0.2c0.6-0.1,1.1-0.3,1.5-0.5c0.2-0.1,0.4-0.2,0.5-0.2c0.2,0,0.3,0,0.3,0
		c0.1,0,0.1,0,0.2,0c0.1,0,0.1,0,0.2,0c0.2,0.1,0.3,0.3,0.2,0.7c-0.1,0.4-0.4,0.6-0.7,0.8C138.8,17.1,138.5,17.3,138.5,17.5z"/>
	<path class="st0" d="M145.3,9.3c0.9,0,1.5,0.2,1.9,0.6s0.6,0.8,0.6,1.2v0.2c0,0.3-0.2,0.8-0.6,1.5c-0.2,0.4-0.5,0.7-1,1
		c-0.4,0.3-0.9,0.4-1.3,0.5c-0.4,0-0.8,0-1.2-0.1c-0.4-0.1-0.6-0.1-0.7-0.1c-0.1,0-0.2,0.1-0.2,0.2c-0.1,0.2-0.2,0.5-0.2,0.9
		c0,0.4,0.2,0.7,0.3,0.9c0.2,0.2,0.4,0.2,0.7,0.2s0.5-0.1,0.8-0.2c0.2-0.1,0.5-0.3,0.8-0.6c0.3-0.3,0.6-0.4,0.8-0.4s0.4,0.1,0.5,0.3
		c0.2,0.2,0.3,0.4,0.3,0.5c0,0.3-0.4,0.8-1,1.4c-0.6,0.6-1.4,0.8-2.2,0.8c-0.8,0-1.5-0.2-2-0.7c-0.5-0.5-0.8-1.2-0.8-2
		c0-0.3,0-0.7,0.1-1.1c0-0.4,0.2-0.9,0.4-1.4s0.6-1.2,1.1-1.8c0.5-0.7,1-1.1,1.6-1.4C144.5,9.4,144.9,9.3,145.3,9.3z M145.2,10.9
		c-0.2,0-0.5,0.2-0.8,0.5c-0.4,0.3-0.7,0.7-1,1.1c0,0.2,0.3,0.3,0.7,0.3s0.8,0,0.9-0.1c0.1-0.1,0.3-0.3,0.6-0.6s0.5-0.5,0.5-0.6
		c0-0.3-0.2-0.5-0.7-0.6H145.2z"/>
</g>
</svg>
