<?xml version="1.0" encoding="utf-8"?>
<!-- Generator: Adobe Illustrator 20.1.0, SVG Export Plug-In . SVG Version: 6.00 Build 0)  -->
<svg version="1.1" id="Layer_1" xmlns="http://www.w3.org/2000/svg" xmlns:xlink="http://www.w3.org/1999/xlink" x="0px" y="0px"
	 viewBox="0 0 230 73" style="enable-background:new 0 0 230 73;" xml:space="preserve">
<style type="text/css">
	.st0{fill:#010101;}
</style>
<g>
	<path class="st0" d="M54.2,51.4l-1.8-30.1c-0.1-1.3-0.1-2.3-0.2-3.2c-0.1-1-0.1-1.8-0.1-2c0-0.9,0.3-1.9,2.2-1.9h0.6V12h-0.6
		c-0.9,0-1.8,0.1-2.7,0.2c-0.9,0.1-1.7,0.2-2.5,0.2s-1.5-0.1-2.3-0.2C46,12.1,45.2,12,44.3,12h-0.4L31.5,44L18.7,11.9h-0.4
		c-0.7,0-1.4,0.1-2.2,0.2c-1,0.1-2.2,0.2-3.8,0.2c-0.5,0-1.1-0.1-1.8-0.2c-1-0.1-2.2-0.3-3.5-0.3H6.4V14L7,14.1
		c2.2,0.2,2.4,0.9,2.4,1.8c0,1.5,0,2.9-0.1,3.9L7.6,53c0,0.9-0.6,1.6-3.2,1.8l-0.6,0.1v2.2h0.6c1.2,0,2.3-0.1,3.3-0.2
		c0.9-0.1,1.8-0.2,2.7-0.2c1,0,1.9,0.1,2.9,0.2c1,0.1,2.1,0.2,3.2,0.2h0.6v-2.2h-0.6c-2.3,0-3.4-1.1-3.4-2.1c0-0.3,0.1-1.3,0.1-2.4
		c0.1-1.2,0.1-2.5,0.2-3.5l1-24.9l13.9,35.1h3.9l12.9-34.4l1.1,17.5c0.1,2.4,0.4,10.6,0.4,12.7c0,1.1,0,1.6-3.2,2L42.8,55v2.1h0.6
		c1.2,0,2.5-0.1,3.7-0.2c1.2-0.1,2.5-0.2,3.7-0.2c1,0,2.1,0.1,3.1,0.2c1,0.1,2.1,0.2,3.2,0.2h0.6v-2.2h-0.6
		C54.9,54.8,54.2,54.1,54.2,51.4z"/>
	<path class="st0" d="M88.8,51.5v-16c0-8.1-4.7-12.4-13.5-12.4c-3.9,0-7.4,0.7-10.5,1.9l-0.4,0.2l-0.5,8.5h1.8l0.2-0.3
		c1.9-3.6,4.8-5.2,9.3-5.2s6.8,2.1,6.8,6.4c0,1.2-0.2,1.6-0.8,1.7l-9.6,1.3c-5,0.7-11.1,3-11.1,10.3c0,6.1,4,9.8,10.6,9.8
		c4.9,0,8.4-1.8,10.8-5.5v4.9l0.7-0.1c0.5,0,0.9-0.1,1.4-0.2c0.9-0.1,1.7-0.2,2.5-0.2c0.9,0,1.8,0.1,2.7,0.2c0.5,0.1,1,0.1,1.5,0.2
		l0.7,0.1v-2.3h-0.6C89.2,54.7,88.8,53.9,88.8,51.5z M73.2,52.2c-2.5,0-5.5-0.8-5.5-4.7c0-2,0.7-4.5,6.2-5.4l7.8-1.4v0.6
		C81.8,45.9,79.2,52.2,73.2,52.2z"/>
	<path class="st0" d="M121.2,24.2c-2,0-4-0.2-5.9-0.4l-0.7-0.1v2.2l0.6,0.1c1.7,0.2,2.3,0.7,2.3,1.9c0,0.7-0.6,2.6-4.6,14l-2,5.9
		l-4.5-11.7c-2.7-6.9-3.1-8.1-3.1-8.7c0-0.8,0.7-1.1,2.2-1.3l0.9-0.1v-2.3l-0.7,0.1c-1.9,0.2-4,0.4-6.4,0.4c-1.9,0-3.5-0.1-5.5-0.3
		l-2-0.2v2.2h0.6c0.5,0,2.2,0.2,2.6,1.2l8.3,20.3c1.1,2.7,1.9,4.8,2.6,6.3c0.7,1.6,1.1,2.8,1.2,3c0,1.1-0.9,2.7-2.1,4.5
		c-1,1.5-2.1,2.2-3.6,2.2c-0.1,0-0.2,0-0.4,0c-1.3,0-1.8-0.9-2.2-2.6l-0.1-0.5h-1.9l0.5,8.7l0.4,0.1c1,0.3,2.1,0.5,3.4,0.5
		c2.7,0,6.1-2.1,7.4-4.7l0.2-0.4c1.2-2.3,2.4-4.5,3.7-8.1l10.3-27.6c0.8-2,1.1-2.8,2.9-2.9h0.6v-2.2l-0.9,0.1
		C123.8,24,122.5,24.2,121.2,24.2z"/>
	<path class="st0" d="M156.2,52.4c-5.8-7.6-8.9-11.2-11.4-14.2l-0.4-0.5l13.7-14.2l-2,0.2c-1.7,0.2-3.3,0.4-5,0.4
		c-2.2,0-4.5-0.2-6.7-0.4l-0.7-0.1v2.2l0.6,0.1c2.3,0.2,2.3,0.5,2.3,0.6c0,0.2-0.6,1.8-8.9,10.5V13.3c0-2.4,0.1-4.8,0.2-7.1
		c0-0.8,0.1-1.6,0.1-2.4v-1l-0.9,0.4c-2.2,0.8-6,1.9-9.1,2.8l-1.5,0.4v1.5l0.5,0.1c0.2,0.1,0.5,0.1,0.7,0.1c0.3,0.1,0.6,0.1,0.9,0.2
		c1.8,0.5,2,0.7,2,1.8v42.8c0,1.5-2.2,1.8-3.1,1.9l-0.6,0.1v2.2l1.7-0.1c1.9-0.2,3.5-0.3,5.6-0.3s3.7,0.1,5.6,0.3l1.7,0.1v-2.2
		l-0.6-0.1c-0.9-0.1-3.1-0.5-3.1-1.9v-13c4.1,4.7,7.4,9,10.2,12.7c1.1,1.5,2.2,2.9,3.2,4.1l0.2,0.3h0.3c1.3-0.1,2.8-0.2,4.1-0.2
		c1.2,0,2.9,0.1,4,0.2l0.7,0.1v-2.3H160C158.2,54.7,157.9,54.5,156.2,52.4z"/>
	<path class="st0" d="M189.8,52.4c-5.8-7.6-8.9-11.2-11.4-14.2l-0.4-0.5l13.7-14.2l-2,0.2c-1.7,0.2-3.3,0.4-5,0.4
		c-2.2,0-4.5-0.2-6.7-0.4l-0.7-0.1v2.2l0.6,0.1c2.3,0.2,2.3,0.5,2.3,0.6c0,0.2-0.6,1.8-8.9,10.5V13.3c0-2.4,0.1-4.8,0.2-7.1
		c0-0.8,0.1-1.6,0.1-2.4v-1l-0.9,0.4c-2.2,0.8-6,1.9-9.1,2.8l-1.5,0.4v1.5l0.5,0.1c0.2,0.1,0.5,0.1,0.7,0.1c0.3,0.1,0.6,0.1,0.9,0.2
		c1.8,0.5,2,0.7,2,1.8v42.8c0,1.5-2.2,1.8-3.1,1.9l-0.6,0.1v2.2l1.7-0.1c1.9-0.2,3.5-0.3,5.6-0.3s3.7,0.1,5.6,0.3l1.7,0.1v-2.2
		l-0.6-0.1c-0.9-0.1-3.1-0.5-3.1-1.9v-13c4.1,4.7,7.4,9,10.2,12.7c1.1,1.5,2.2,2.9,3.2,4.1L185,57h0.3c1.3-0.1,2.8-0.2,4.1-0.2
		c1.2,0,2.9,0.1,4,0.2l0.7,0.1v-2.3h-0.6C191.9,54.7,191.5,54.5,189.8,52.4z"/>
	<path class="st0" d="M226.1,39.2c0-10.2-5.9-16.1-16.1-16.1c-9.7,0-17.1,7.4-17.1,17.1c0,10.3,6.8,17.5,16.6,17.5
		c5.8,0,10.8-1.7,14.3-4.8l0.2-0.2l0.7-6l-1.1,0.8c-5.3,3.8-7.3,4.4-10.6,4.4c-3.6,0-6.7-1.2-9-3.5c-2.1-2.1-3.3-5.2-3.4-8.5h25.5
		V39.2z M201,35.2c0.8-4.3,4.6-7.4,9.1-7.4c4.7,0,7.8,2.9,8.1,7.4H201z"/>
</g>
</svg>
