<?xml version="1.0" encoding="utf-8"?>
<!-- Generator: Adobe Illustrator 20.1.0, SVG Export Plug-In . SVG Version: 6.00 Build 0)  -->
<svg version="1.1" id="Layer_1" xmlns="http://www.w3.org/2000/svg" xmlns:xlink="http://www.w3.org/1999/xlink" x="0px" y="0px"
	 viewBox="0 0 244 40" style="enable-background:new 0 0 244 40;" xml:space="preserve">
<style type="text/css">
	.st0{fill:#FFFFFF;}
</style>
<g>
	<g>
		<path class="st0" d="M8.8,18.6l0.4-1.4l0.3-0.6H7.4c-0.5,0-0.9-0.1-1.3-0.2c-0.5,0-0.9-0.2-1.1-0.5c-0.3-0.4-0.3-0.6-0.1-0.7
			c0.5-0.3,2.3-0.6,5.4-0.7c0.9-2.1,1.8-4.5,2.8-7.1c1-2.6,1.5-4,1.5-4.2c0-0.4,0.2-0.6,0.6-0.6c0.1-0.1,0.3-0.2,0.6-0.2l0.6,0.6
			c0.3,0.2,0.4,0.6,0.4,1s0,0.7,0,0.8s0,0.3-0.1,0.4c0,0.1-0.1,0.3-0.2,0.5c-0.1,0.2-0.2,0.4-0.3,0.6c-0.1,0.2-0.2,0.5-0.4,0.9
			c-0.2,0.5-0.4,0.8-0.5,1.1c-0.1,0.3-0.6,1.3-1.2,2.9s-1.2,2.7-1.4,3.2c1.1,0,3-0.1,5.9-0.1c2.8-6.9,4.1-10.5,4.1-11
			c0-0.5,0.2-0.7,0.6-0.7c0.1-0.1,0.3-0.2,0.6-0.2l0.6,0.6c0.3,0.2,0.4,0.6,0.4,1s0,0.7,0,0.8c0,0.1,0,0.3-0.1,0.4
			c0,0.1-0.1,0.3-0.2,0.5c-0.1,0.2-0.2,0.4-0.3,0.6c-0.1,0.2-0.2,0.5-0.4,0.9c-0.2,0.5-0.4,0.8-0.6,1.2c-1.3,2.9-2.2,4.9-2.6,5.9
			h1.8c0.6,0,1.1,0,1.3,0.1c0.2,0.1,0.5,0.2,0.7,0.5c0.4,0.4,0.5,0.7,0.4,1c-0.1,0.3-0.5,0.4-1,0.3l-3.2,0.2h-0.8
			c-1,2-1.4,3.1-1.4,3.4c0,0.3-0.1,0.5-0.2,0.6c-0.1,0-0.2,0.1-0.2,0.3V21c0,0.1-0.1,0.3-0.2,0.8c0.7,0,1.5,0,2.2,0
			c0.7,0,1.2,0,1.4,0.1c0.2,0.1,0.5,0.2,0.7,0.5c0.4,0.4,0.5,0.7,0.4,1s-0.5,0.4-1,0.3l-2.3,0.2l-2.2,0.1c-1.8,6.1-2.8,9.4-2.8,10.1
			c0,0.7,0,1.1-0.1,1.3c0,0.2-0.1,0.3-0.3,0.4c-0.7,0.2-1.2-0.1-1.4-0.9c-0.3-0.8-0.2-1.9,0.1-3.2c0.3-0.7,0.4-1.2,0.4-1.5
			c0.1-0.5,0.7-2.6,1.9-6.1c-2.5,0-4.5,0.1-5.9,0.1C7.3,30,6.4,33.4,6.4,34c0,0.6,0,1.1-0.1,1.2S6.2,35.6,6,35.7
			c-0.7,0.2-1.2-0.1-1.4-0.9c-0.3-0.8-0.2-1.9,0.1-3.2C4.9,30.9,5,30.3,5,30c0.1-0.6,0.7-2.6,1.8-6H5.2c-0.5,0-0.9-0.1-1.3-0.2
			c-0.5,0-0.9-0.2-1.1-0.5c-0.3-0.4-0.3-0.6-0.1-0.7c0.5-0.3,2.1-0.5,4.8-0.7c0.3-0.8,0.4-1.3,0.5-1.4c0.2,0,0.4-0.3,0.4-0.8
			S8.6,18.8,8.8,18.6z M10.2,20.6c-0.1,0-0.2,0.1-0.2,0.3V21c0,0.2-0.1,0.5-0.2,0.9l5.9-0.1c0.2-0.7,0.4-1.1,0.4-1.2
			c0.2,0,0.4-0.3,0.4-0.8s0.1-0.9,0.4-1.1l0.4-1.4c0.1-0.1,0.2-0.3,0.3-0.7c-2.4,0-4.3,0.1-5.8,0.1c-0.9,1.9-1.4,3-1.4,3.3
			C10.4,20.2,10.3,20.4,10.2,20.6z"/>
		<path class="st0" d="M34,10.1c0.4-0.5,0.6-0.9,0.6-1.3c0-0.4,0.1-0.8,0.3-1.2C35.1,7.2,35.4,7,35.6,7c0.6,0,1,0.2,1.3,0.6
			c0,0,0.1,0.1,0.1,0.2C37.1,7.9,37.1,8,37.2,8c0,0,0.1,0.1,0.1,0.2c0,0.1,0.1,0.2,0.1,0.3c0,0.1,0,0.2,0.1,0.3c0,0.1,0,0.3,0,0.4
			c0,0.1,0,0.3,0,0.5c0,0.2,0,0.4-0.1,0.8c0,0.3-0.1,0.9-0.3,1.7c-0.1,0.8-0.2,1.2-0.2,1.4c-0.7,2.2-1.4,5-1.9,8.4
			c-0.5,3.4-0.7,5.2-0.5,5.5c0.1,0.1,0.3,0.2,0.4,0.1c0.1-0.1,0.4-0.4,0.7-1c0.3-0.6,0.8-1.3,1.6-2.2c0.2-0.3,0.6-1,1.2-2.1
			c2.5-4.2,4.8-8,6.8-11.5c0.2-0.3,0.6-0.9,1-1.6c0.9-1.4,1.5-2.3,1.8-2.5c0.5-0.5,1-0.4,1.6,0.1C50.2,7.1,50.5,8,50.5,9
			c0,1.6-0.4,4.1-1.5,7.2c-0.3,1.7-0.8,3.5-1.5,5.4c0,0.3-0.1,0.9-0.3,1.5c-0.2,1.3-0.3,2.1-0.3,2.4c-0.4,0.7-0.6,2-0.6,4
			c-0.2,1.7-0.4,2.5-0.5,2.6c-0.3-0.1-0.5,0-0.5,0.2c-0.1,0.2-0.2,0.3-0.5,0.1c-0.3-0.2-0.5-0.3-0.6-0.5c-0.3-0.6-0.4-1.6-0.3-3
			c0.8-4.5,1.7-8.9,2.7-13.4c0.5-1.9,1-3.7,1.3-5.5c0-0.1-0.1,0-0.4,0.3c-0.2,0.3-0.4,0.6-0.4,0.7c-0.8,1.1-1.3,1.8-1.5,2.2
			c-0.2,0.4-0.4,0.8-0.7,1.4c-0.3,0.6-0.5,1-0.7,1.4c-0.2,0.4-0.6,1.1-1.2,2.2c-0.6,1.1-1,1.8-1.2,2.2c-0.2,0.4-0.6,1.1-1.1,2
			c-0.2,0.6-0.7,1.3-1.3,2.1l-0.9,1.5c0,0.1-0.3,0.5-0.8,1.2c-0.5,0.7-1.1,1.4-1.7,2.1c-0.6,0.7-1.2,1.1-1.7,1.2
			c-0.5,0.1-1.1-0.1-1.7-0.6c-0.5-0.6-0.8-1.3-0.9-2.2c-0.1-0.9,0-2.2,0.2-3.8c0.2-0.8,0.4-1.9,0.6-3.3c0.5-2.9,0.8-4.5,1-4.8
			c0-0.5,0-0.8,0-0.8c-0.1,0-0.2,0.1-0.4,0.4c-1.9,3.2-3.2,5.5-3.9,6.9c-1.8,3.4-3.1,5.8-4,7.5c-0.9,1.6-1.3,2.5-1.4,2.6
			c-0.4,0-0.8-0.3-1.4-0.9c-0.1-0.3-0.1-0.6,0-0.8c0.1-0.2,0.4-0.9,0.8-2c0.8-1.5,1.3-2.3,1.5-2.5c0.3-0.4,0.5-0.8,0.5-1.3
			c0.3-0.4,0.8-1.2,1.4-2.4c0.9-1.4,1.8-3,2.6-4.7c0.5-0.8,1-1.6,1.4-2.4c0.4-0.8,0.8-1.4,1.1-1.9c0.3-0.5,0.5-0.9,0.7-1.2
			c0.2-0.3,0.4-0.6,0.6-0.9C33.6,10.7,33.9,10.3,34,10.1z"/>
		<path class="st0" d="M49.4,28.8c-0.2-0.2-0.2-0.3-0.2-0.5c0-0.2-0.1-0.3-0.2-0.5c-0.4-0.4,0.2-2.2,2-5.4c0.1-0.1,0.3-0.4,0.6-0.8
			c0.2-0.4,0.4-0.6,0.5-0.6c0-0.1,0-0.2,0.1-0.3c0.1-0.1,0.2-0.1,0.3-0.1v-0.2c0-0.2,0.4-0.8,1.2-1.6c2.2-2.3,3.8-2.9,5-2
			c0.1,0.2,1.2,1.1,3,2.8l-0.7,1.8c-0.5,1.6-0.4,3.1,0.5,4.5c0.1,0.3,0.4,0.5,0.7,0.8c0.4,0.2,0.7,0.4,1.1,0.4
			c0.5,0.1,0.8,0.4,0.8,0.8s-0.2,0.7-0.7,0.8c-1.6,0.2-3-0.8-4.2-3c-0.3-0.5-0.6-1-0.7-1.6c-0.4,0.5-0.8,1-1.2,1.4
			c-3.4,3.5-6,4.7-7.6,3.6C49.7,29.1,49.6,28.9,49.4,28.8z M58.9,20.1c-0.4-1-0.9-1.5-1.5-1.5c-0.5,0-1.4,0.6-2.5,1.9
			s-2.1,2.8-3,4.5l-0.9,2.1c0,0.3,0.3,0.3,0.9-0.1c0.6-0.3,1.1-0.6,1.6-1c2.1-1.8,3.6-3.4,4.6-4.7L58.9,20.1z"/>
		<path class="st0" d="M73.1,16.8c0.1,0,0.3,0.1,0.5,0.2c0.4,0.5,0.6,0.9,0.6,1.4c0,0.4-0.3,1.1-0.9,2.2c-0.4,1.3-0.8,2.1-1.2,2.5
			c-0.8,1.9-1.5,3.4-2.2,4.7c-0.6,1.3-1.1,2.3-1.4,3.1c-1.6,2.5-2.7,4.1-3.3,4.9c-1.3,1.2-2.4,1.9-3.2,2.1c-0.8,0.2-1.7,0.2-2.8-0.2
			c-1.1-0.4-1.6-0.9-1.8-1.5c0-0.2,0.1-0.5,0.3-0.7s0.5-0.2,0.6,0c2,1.3,3.9,0.7,5.8-1.9c1.2-2.1,2.1-3.6,2.7-4.6
			c-0.5-0.1-1-0.6-1.4-1.3c-0.4-0.7-0.6-1.2-0.6-1.5v-0.4c-0.3,0-0.5-0.6-0.6-1.9c-0.1-1.3-0.2-2.3-0.1-2.9c0.1-0.7,0.1-1.8,0.2-3.4
			c0-0.5,0.1-0.9,0.4-1.1c0.9-0.4,1.4,0.1,1.5,1.4c0.1,0.7,0.1,1.6,0,2.8c-0.2,3.8,0.2,6.1,1.3,6.9c0.5-1.1,0.8-1.9,1-2.3
			c0.2-0.4,0.3-0.7,0.3-0.8c0-0.1,0.1-0.3,0.2-0.5c0.1-0.2,0.3-0.7,0.7-1.4c0.6-1.8,1-2.9,1.2-3.1c0.1-0.3,0.3-0.5,0.3-0.7
			c0.1-0.2,0.2-0.3,0.2-0.4c0-0.1,0.1-0.2,0.2-0.3c0.1-0.1,0.1-0.2,0.2-0.3c0-0.1,0.1-0.1,0.2-0.2c0.1-0.1,0.2-0.2,0.3-0.3
			C72.9,16.9,73.1,16.8,73.1,16.8z"/>
		<path class="st0" d="M80.8,8.4c0-0.1,0.2-0.2,0.5-0.1c0.3,0,0.5,0.2,0.6,0.3c0.1,0,0.3,0.1,0.4,0.5c0.2,0.3,0.2,0.6,0.2,0.9
			c0,0.2-0.1,0.4-0.2,0.6c-0.1,0.2-0.3,0.4-0.4,0.7c-0.1,0.3-0.3,0.5-0.4,0.6c-0.4,1.2-0.7,1.9-0.8,2.2c-0.3,0.5-0.4,0.9-0.5,1.2
			c-0.1,0.2-0.3,0.7-0.6,1.4c-0.3,0.7-0.7,1.6-1,2.5c-0.3,1-0.6,1.7-0.8,2.2c0,0,0.1-0.1,0.2-0.2c0.1-0.1,0.2-0.1,0.2-0.2
			c0,0,0.3-0.3,1-0.9c0.7-0.4,1.6-1,2.7-1.9c1.1-0.8,1.7-1.4,1.9-1.6c0.2-0.2,0.5-0.3,0.8-0.1c0.3,0.1,0.5,0.2,0.6,0.4
			c0.1,0.2,0.1,0.5,0.1,0.9c0.1,0.5-0.4,1.1-1.6,1.9C83,20.2,82.4,20.6,82,21c-0.7,0.4-1.4,0.9-1.9,1.4c-0.6,0.5-0.9,0.8-1.1,1
			c1.1,1.6,1.7,2.5,1.7,2.6c0.1,0.1,0.2,0.3,0.4,0.6c0.2,0.3,0.3,0.5,0.4,0.6c0.1,0.1,0.2,0.2,0.4,0.4c0.2,0.2,0.3,0.3,0.4,0.4
			c0.1,0.1,0.2,0.2,0.4,0.3c0.2,0.2,0.6,0.5,1.1,0.7c0.2,0.2,0.3,0.4,0.3,0.7c-0.1,0.3-0.2,0.4-0.3,0.5c-0.1,0.1-0.4,0.2-1,0.3
			c-0.5,0-1.1-0.3-1.8-0.8c-0.6-0.4-2-2-4-4.8c-0.1,0-0.2-0.1-0.3-0.4C76.2,25.3,76,26,76,26.2c-0.1,0.2-0.2,0.7-0.4,1.4
			c-0.2,0.7-0.3,1.2-0.5,1.5c-0.1,0.8-0.5,1-1.2,0.6c-0.5-0.3-0.7-0.7-0.7-1.1c0.1-0.7,0.3-1.5,0.6-2.3c0.2-1.2,0.5-2,0.8-2.6
			c1.2-3.4,1.8-5.2,1.9-5.5c0.2-0.5,0.5-1.2,1-2.2c0.5-1,0.8-1.8,0.9-2.2c0.2-0.4,0.4-1.2,0.8-2.1S79.8,10,80,9.7
			C80.2,9.5,80.4,9,80.8,8.4z"/>
		<path class="st0" d="M90.9,12.6c0,0.3-0.4,1.4-1.3,3.1c-0.9,1.7-1.4,2.9-1.5,3.4c0,0,0.3-0.1,0.7-0.4c0.6-0.5,1.3-0.9,2-1.4
			c2.5-1.5,4-1.1,4.5,1c0,0.4-0.2,1-0.6,1.9c-0.4,0.9-0.7,1.4-1,1.7l-0.6,0.3c0,0.3-0.2,0.6-0.6,0.7c-0.3,0.3-0.5,0.6-0.5,0.7V24
			l-1.1,0.7c-0.3,0.3-0.5,0.4-0.7,0.5c-0.2,0-0.3,0.1-0.3,0.1c0,0-0.1,0.1-0.2,0.1c-0.2,0.1-0.3,0.2-0.3,0.3c0,0.2,0.4,0.7,1.2,1.6
			c0.8,0.9,1.3,1.4,1.6,1.6c0.3,0.1,0.5,0.4,0.6,0.8c0.1,0.4,0.1,0.7,0,0.9c-0.1,0.1-0.3,0.1-0.8,0.1c-0.5,0-0.8-0.1-1-0.2
			s-0.3-0.2-0.5-0.3c-0.1-0.1-0.3-0.2-0.4-0.3l-1.6-1.8c-0.1-0.2-0.6-0.8-1.4-1.6c-0.6-0.8-1-1.1-1.2-1.1c-0.6,2-1,3.3-1.2,4
			c-0.3,0.6-0.6,0.9-0.9,0.9c-0.3,0-0.5-0.1-0.7-0.4c-0.2-0.3-0.3-0.6-0.3-1c-0.2-0.7,0.5-2.9,1.9-6.6c0-0.2,0.1-0.5,0.2-0.7
			c0.1-0.3,0.2-0.5,0.3-0.8c0.1-0.3,0.2-0.7,0.4-1.3c0.2-0.6,1-2.6,2.5-6c0.4-0.9,1.1-2.1,2-3.8c0.9-1.7,1.5-2.6,1.7-2.9
			s0.5-0.4,0.8-0.4s0.5,0.1,0.8,0.3c0.2,0.2,0.3,0.5,0.3,0.9c-0.1,0.4-0.4,1-0.9,1.9c-0.2,0.5-0.5,1-0.7,1.4
			c-0.3,0.4-0.5,0.8-0.7,1.2C91.2,12.4,91.1,12.6,90.9,12.6z M93.1,18.7c0-0.1-0.7,0.1-2.1,0.8c-0.8,0.4-1.5,1-2.3,1.7
			c-0.8,0.7-1.4,1.3-1.7,1.8c-0.1,0.3,0,0.6,0.4,0.9c0.4,0.3,0.7,0.4,1.1,0.2c0.4-0.3,1.1-0.9,2.2-1.7c1-0.9,1.7-1.5,1.9-1.8
			c0.2-0.2,0.4-0.5,0.5-0.9C93.2,19.3,93.2,18.9,93.1,18.7z"/>
		<path class="st0" d="M97.6,23.1c-0.6,1.6-0.9,2.7-0.9,3.5c0,0.8,0.1,1.3,0.3,1.6c0.2,0.3,0.6,0.5,1.2,0.5c0.6,0,1-0.1,1.4-0.2
			c0.4-0.1,0.9-0.5,1.6-1l1.2-0.7c0.1,0,0.2-0.1,0.3-0.2c0.2-0.1,0.5-0.1,0.8,0.1c0.3,0.2,0.4,0.4,0.4,0.7c0,0.2-0.3,0.5-0.7,1
			c-0.4,0.4-0.7,0.7-0.9,0.7c-0.3,0.2-0.5,0.3-0.6,0.3h0c-0.2,0.3-0.4,0.4-0.7,0.4H101c-0.1,0.2-0.4,0.4-1,0.6
			c-0.6,0.2-1.1,0.3-1.6,0.3c-1.1,0-2-0.4-2.7-1.2s-1-1.8-1-3.1c0.1-1.8,0.7-3.7,1.8-5.8c1.6-2.9,3.3-4.4,5.2-4.4
			c0.5,0,1,0.1,1.6,0.4c0.8,0.3,1.3,0.9,1.5,1.8c0.1,0.7,0.1,1.3-0.1,1.9c-0.6,1.8-1.6,3.1-3,3.9c-0.4,0.2-0.9,0.4-1.5,0.4
			c-1.2,0-2-0.4-2.5-1.1L97.6,23.1z M99.2,21.4c0,0.3,0.1,0.6,0.3,0.8c0.2,0.2,0.4,0.3,0.7,0.3c0.7,0,1.4-0.4,1.9-1.1
			c0.5-0.7,0.9-1.4,1-2.1s0-1.1-0.2-1.3c-0.6-0.3-1.4,0-2.5,1c-0.7,0.6-1.2,1.2-1.5,1.6l-0.5,0.8c0.2-0.1,0.4-0.1,0.6-0.1
			C99.1,21.3,99.2,21.3,99.2,21.4z"/>
		<path class="st0" d="M110.8,21.7c1.8-1.6,3.6-2.9,5.3-3.7c1.7-0.8,3-1.2,4-1.2c0.3,0,0.5,0.1,0.7,0.3c0.2,0.2,0.4,0.5,0.5,0.7
			c0.1,0.3,0.2,0.5,0.2,0.6c0,0.2-0.1,0.4-0.3,0.5c-0.2,0.1-0.5,0.2-0.9,0.4c0.1,0.2,0.2,0.4,0.3,0.7c0.1,0.3,0.2,0.5,0.3,0.7
			c0.1,0.2,0.1,0.3,0.1,0.5c0,0.3-0.3,0.8-0.9,1.6c-0.6,0.8-1,1.4-1.2,1.7c-0.2,0.4-0.3,0.8-0.3,1.4c0,0.9,0.4,1.3,1.2,1.3
			c0.8,0,2.1-0.8,3.9-2.3V26c-3,3.4-5.2,5-6.5,5c-0.5,0-0.8-0.2-1-0.5c-0.2-0.3-0.3-0.8-0.3-1.4c0-0.9,0.3-2.3,1-4.1
			c-1.7,1.9-3,3.3-3.9,4.1c-0.8,0.8-1.5,1.2-2.1,1.2c-0.3,0-0.6-0.2-1-0.7c-0.4-0.5-0.7-1-1-1.8c-0.3-0.7-0.5-1.5-0.5-2.2
			c0-0.6,0.1-1,0.2-1.4c0.1-0.4,0.3-0.8,0.6-1.2C109.6,22.8,110.1,22.3,110.8,21.7z M119.4,19.7c-3.1,1.4-5.3,2.6-6.6,3.6
			c-1.3,1-2,2-2,3.1c0,0.4,0.1,0.7,0.2,0.9c0.1,0.2,0.3,0.4,0.5,0.4c0.1,0,0.4-0.1,0.7-0.3c1.3-0.7,2.4-1.7,3.4-2.9
			C116.7,23.4,117.9,21.8,119.4,19.7z"/>
		<path class="st0" d="M130.1,4.8c1.4-0.3,2.8-0.4,4-0.3c1.2,0.1,2.8,0.5,4.6,1.2c1.3,0.5,2.6,1.4,3.9,2.8c1.3,1.4,2.2,2.8,2.6,4.3
			c0.1,0.5,0.3,1.2,0.3,2.1c0.1,0.8,0,1.4-0.2,1.7c-0.2,0.3-0.1,0.5,0.1,0.6c0,0.1-0.2,0.4-0.3,1s-0.3,0.9-0.3,1.1
			c-0.1,0.9-0.4,2-0.9,3.2c-0.5,1.3-1,2.3-1.4,3.1c-0.1,0-0.2,0.1-0.3,0.1c0,0.1-0.1,0.4-0.4,0.7c-0.1,0-0.2,0.2-0.5,0.5
			c-0.2,0.3-0.4,0.5-0.5,0.6c0,0.2-0.1,0.3-0.2,0.4c-0.1,0.1-0.2,0.2-0.3,0.2c0,0.1,0,0.1-0.1,0.1c-0.4,0.6-1.3,1.5-2.6,2.6
			c-1.3,1.1-2.4,1.9-3.3,2.2c-0.1,0.1-0.6,0.4-1.5,0.8c-0.1,0.1-0.9,0.3-2.1,0.4c-1.3,0.1-2,0.2-2.3,0.2c-0.9,0.1-2.2,0-3.8-0.4
			c-0.4-0.1-0.6-0.2-0.8-0.4c-0.2-0.2-0.3-0.3-0.3-0.3c0,0-0.1-0.1-0.2-0.3c-0.1-0.2-0.2-0.3-0.3-0.3c-0.4-0.5-0.6-1.2-0.5-1.9
			c0.1-0.7,0.5-1.1,1.1-1.2c0.2,0,0.4,0,0.7,0.1c0-0.7,0.1-1.3,0.2-1.9c0.1-0.6,0.6-2.1,1.5-4.6s1.5-4.7,2-6.4
			c0.5-1.7,0.9-3,1.3-3.7c0-0.1,0.1-0.4,0.3-0.8c0.3-1.1,0.6-2.1,1.1-3.2l0.3-1.2l-0.4-0.2c-0.4,0.1-0.8,0.1-1,0
			c-0.2,0.1-0.5,0-0.9-0.4c-0.4-0.3-0.6-0.6-0.6-0.8l-0.1-0.6C127.9,5.4,128.7,5.1,130.1,4.8z M127.2,30.8c0,0.1,0,0.2,0,0.3
			c0.4,0.2,0.8,0.3,1.1,0.2c0.3,0,0.8-0.1,1.3-0.1c1.3,0,2.1-0.2,2.5-0.6c1.3-0.9,2.6-1.8,3.9-2.9c0-0.1,0.3-0.3,0.8-0.4
			c0.1-0.1,0.5-0.5,1.1-1.2c0.6-0.6,1-1,1.1-1.1c0-0.1,0.1-0.3,0.1-0.5c0.1-0.2,0.1-0.4,0.1-0.5c0.3-0.3,0.7-1.1,1.3-2.3
			c0.6-1.2,1-2.3,1.2-3.1c0.9-3.8,0.1-6.8-2.4-9c-0.5-0.4-1.4-0.9-2.5-1.4c-1.2-0.5-1.8-0.8-1.9-0.7c-0.1,0-0.4,0.6-0.8,1.7
			c-0.4,1.1-1,2.7-1.8,4.8c-0.8,2.1-1.3,3.7-1.7,4.6c-0.1,0.4-0.2,0.9-0.4,1.4c-0.4,1.3-0.7,2-0.7,2.1c-0.7,1.1-1.2,3-1.6,5.6
			c0,0.2-0.1,0.5-0.2,0.7c-0.1,0.2-0.1,0.5-0.1,0.6c0,0.2-0.1,0.3-0.1,0.5c0,0.2-0.1,0.3-0.1,0.4c0,0.1-0.1,0.2-0.1,0.3
			C127.3,30.7,127.2,30.8,127.2,30.8z"/>
		<path class="st0" d="M145.2,27l0.1-0.8c0-0.1,0.1-0.6,0.3-1.2c0.5-1.2,1.2-3.2,2.1-6c0-0.3,0.2-0.5,0.6-0.5c0.3-0.1,0.6,0,1,0.3
			s0.8,0.7,1,1.1c0.3,0.3,0.3,0.9-0.1,1.7c-0.4,0.8-0.6,1.7-0.8,2.5c-0.3,0.7-0.5,1.1-0.6,1.4c-0.1,0.3-0.2,0.8-0.3,1.5
			c-0.1,0.7-0.3,1.2-0.4,1.4c-0.2,1-0.6,1.5-1.2,1.8c-0.6,0.2-1,0.1-1.4-0.4c-0.3-0.3-0.4-0.8-0.5-1.4S145,27.3,145.2,27z
			 M148.9,14.5c-0.2-0.3-0.2-0.6-0.2-0.8c0-0.2,0.1-0.4,0.2-0.5c0.1-0.1,0.3-0.5,0.6-1.1c0.5-1.1,0.9-1.6,1.1-1.6
			c0.3-0.2,0.7-0.2,1.2,0c0.5,0.2,0.9,0.5,1.2,0.9c0.4,1,0.2,2-0.6,3c-0.4,0.5-0.8,0.8-1.4,0.9c-0.6,0.1-1,0.1-1.3-0.1
			C149.2,15,149,14.8,148.9,14.5z"/>
		<path class="st0" d="M160.4,29.5l-0.3,3.6c-0.1,1.1-0.3,1.7-0.4,1.8c-0.2,0.1-0.5,0-1-0.2c-0.5-0.2-0.9-0.5-1.2-0.8
			c-0.3-0.3-0.4-0.6-0.4-0.8s0-0.6,0.1-1.2c0.1-0.4,0.2-0.9,0.2-1.6c0-0.9,0.2-2,0.5-3.5c0.4-1.4,0.6-2.5,0.7-3.2
			c0.1-0.2,0.2-0.6,0.3-1c0.1-0.4,0.2-0.8,0.3-1c-0.5,0-1.4,0.1-2.5,0.3c-1.1,0.2-1.7,0.3-1.8,0.4c-0.3,0.2-0.7,1.2-1,3.2
			c-0.3,1.1-0.4,2.2-0.5,3.5c0,1.2,0,2.1,0.2,2.6c0.2,0.5,0.1,1-0.1,1.5s-0.6,0.8-0.9,0.9c-0.5,0-1-0.4-1.4-1.2
			c-0.5-0.9-0.7-1.9-0.7-3c-0.2-1.9,0.3-4.9,1.5-9.1c0.3-1.2,1-2.9,1.8-4.9c0.9-2.1,1.4-3.2,1.6-3.3c0.1,0,0.2,0,0.2-0.1
			c0-0.1,0-0.1,0-0.2c0-0.1,0-0.2,0.1-0.3c0.1-0.2,0.2-0.4,0.3-0.6c0.1-0.3,0.3-0.5,0.4-0.7c0.5-0.7,1.2-1.4,2-2.1
			c0.8-0.7,1.5-1.2,2-1.4c0.5-0.2,1-0.3,1.5-0.3c0.5,0,1,0.2,1.6,0.6s1,0.9,1.2,1.5c0.4-0.5,0.9-0.9,1.6-1.4
			c0.7-0.5,1.1-0.7,1.2-0.8c0.9-0.5,1.7-0.7,2.5-0.7s1.6,0.4,2.6,1.3c0.3,0.4,0.5,0.6,0.6,0.7c0,0.1,0.1,0.4,0.1,0.7
			c-0.1,0.5-0.5,1.3-1.3,2.5c-0.8,1.2-1.3,1.8-1.5,1.8c-0.3,0.1-0.5,0.1-0.6-0.1c-0.1-0.2-0.2-0.4-0.2-0.6c0-0.3-0.2-0.6-0.6-0.9
			c0-0.4,0.1-0.7,0.3-1c0.1-0.2,0.1-0.5,0.1-0.7c-0.1-0.2-0.2-0.3-0.5-0.3c-0.2,0.1-0.6,0.4-1.2,0.9c-0.5,0.5-0.8,0.8-0.8,0.9
			c-0.1,0.3-0.4,0.7-0.7,1.1c-0.4,0.6-0.7,1-0.7,1.3s-0.1,0.3-0.2,0.3c-0.1,0.3-0.3,0.7-0.5,1.2c-0.2,0.6-0.5,1-0.7,1.3h0
			c-0.5,1.1-0.7,1.6-0.7,1.7c0,0.1,0.3,0.1,0.9,0.1c0.6-0.1,1.2-0.2,1.7-0.3c0.6-0.1,1.1-0.2,1.6,0c0.3,0.2,0.5,0.6,0.7,1.2
			c0.2,0.6,0.2,1,0.1,1.2c-0.1,0.3-0.9,0.5-2.3,0.8c-0.3,0.1-0.7,0.2-1.4,0.3c-1.4,0.3-2.1,0.5-2.1,0.6c-0.2,0-0.4,0.2-0.4,0.5
			c0,0.3-0.1,0.6-0.2,0.9c-0.1,0.3-0.3,1-0.6,2c-0.3,1.1-0.4,1.7-0.4,2c-0.2,0.2-0.3,0.7-0.3,1.3C160.5,28.8,160.4,29.1,160.4,29.5z
			 M160.4,10.7v0.1c-0.1,0-0.5,0.3-1,1c-0.5,0.7-1,1.4-1.5,2.1c-0.2,0.4-0.8,1.8-1.7,4.2l-0.3,0.9l0.6,0.1c0.2,0,0.8-0.1,1.6-0.2
			c0.9-0.2,1.5-0.3,2-0.3l0.2-0.4c0.6-1.8,1.2-3.2,1.7-4.2c0.3-0.9,0.4-1.4,0.5-1.7c0-0.2,0.1-0.6,0.3-1.2c0.1-0.6,0.2-0.9,0.1-1
			c-0.1-0.1-0.3-0.2-0.6-0.2c-0.4,0-0.8,0.1-1.2,0.3C160.6,10.4,160.4,10.5,160.4,10.7z"/>
		<path class="st0" d="M174.9,15.9c2.7,0,4.1,1.1,4.1,3.4c0,1.2-0.5,2.4-1.6,3.7c-1.1,1.3-2.2,2-3.3,2c-1.1,0-2.1-0.4-2.8-1.1
			c-0.4,0.8-0.6,1.5-0.6,2c0,0.5,0,0.8,0,1c0,0.1,0.1,0.4,0.1,0.6c0.1,0.4,0.4,0.7,0.9,0.7c0.5,0,0.9,0,1.2-0.1
			c0.3-0.1,0.5-0.2,0.6-0.2c0.1-0.1,0.3-0.2,0.6-0.4c0.3-0.2,0.5-0.4,0.7-0.5c0.2-0.1,0.4-0.2,0.6-0.4c0.2-0.1,0.3-0.2,0.4-0.3
			c0.2-0.1,0.3-0.2,0.4-0.2c0.4,0,0.7,0.1,1,0.3c0.3,0.2,0.5,0.5,0.5,0.8c0,0.3-0.2,0.7-0.7,1.2c-0.4,0.6-0.9,0.9-1.4,1.2l-0.4,0.2
			c-0.2,0.3-0.4,0.4-0.7,0.4h-0.3c-0.1,0.2-0.4,0.4-1,0.6c-0.6,0.2-1.1,0.3-1.6,0.3c-2.8,0-4.2-1.6-4.2-4.8c0-1.8,0.6-3.8,1.8-6
			C171.2,17.4,173,15.9,174.9,15.9z M172.2,21.5c0.1,0,0.2-0.1,0.3-0.1c0.1,0,0.3,0.1,0.5,0.4c0.2,0.3,0.5,0.4,0.8,0.4
			c0.7,0,1.3-0.3,1.7-0.9c0.5-0.6,0.7-1.1,0.7-1.5c0-0.9-0.2-1.3-0.7-1.3c-0.4,0-0.9,0.2-1.4,0.6c-0.5,0.4-1,0.9-1.4,1.5L172.2,21.5
			z"/>
		<path class="st0" d="M184,15.9c0.5,0,0.9,0.1,1.1,0.3c0.5,0.5,0.2,2-1.1,4.5c-0.4,0.8-0.6,1.2-0.4,1.2c0.3-0.5,0.9-1.1,2-1.9
			c1-0.8,1.7-1.3,2-1.4c0.3-0.1,0.6-0.3,0.9-0.4c0.3-0.1,0.5-0.2,0.5-0.2c0.5-0.3,1.1-0.4,1.8-0.3c0.7,0.1,1.1,0.3,1.2,0.6
			c0,0.2,0.1,0.4,0.4,0.6l0.2,0.2c0,0.2-0.2,0.4-0.5,0.8c-0.3,0.3-0.7,0.5-1.1,0.5c-0.4,0-0.8,0.2-1.3,0.4c-0.5,0.2-1,0.5-1.4,0.7
			c-0.5,0.3-0.8,0.5-1,0.6c-0.2,0.1-0.5,0.3-0.9,0.5c-0.7,0.5-1.3,1-1.8,1.7c-0.7,0.7-1,1.1-1.1,1.3c-0.2,0.2-0.3,0.6-0.5,1.3
			c-0.2,0.7-0.3,1.2-0.3,1.3c-0.1,0.4-0.3,0.8-0.6,1.1s-0.5,0.6-0.8,0.6c-0.3,0.1-0.6-0.1-1-0.4c-0.8-0.6-1.1-1.2-1-1.8
			c0.1-0.6,0.3-1.9,0.8-3.6c0.1-0.7,0.5-2,1.2-3.9c0.7-1.9,1.3-3.3,1.7-3.9C183.1,16,183.5,15.9,184,15.9z"/>
		<path class="st0" d="M198,24.4c-0.7,0-1.2-0.1-1.4-0.2c-0.3-0.1-0.5,0-0.6,0.6l-0.1,0.8c-0.1,0.6,0.1,1.2,0.5,1.6
			c0.2,0.2,0.5,0.3,0.9,0.3c0.4,0,0.8-0.2,1.1-0.4c0.3-0.2,0.7-0.6,1-1c0.4-0.4,0.6-0.6,0.8-0.8c0.2-0.4,0.9-0.5,1.8-0.3
			c0.5,0.4,0.5,1.2-0.2,2.4c-0.1,0.2-0.5,0.7-1.1,1.2c-0.6,0.6-1.1,1-1.5,1.2c-1.3,0.7-2.6,0.7-4.1,0.2c-1.8-0.7-2.6-2.5-2.3-5.4
			c0-0.7,0-1.2-0.1-1.5c-0.1-0.3-0.2-0.5-0.4-0.6c-0.2-0.1-0.3-0.3-0.5-0.4c-0.4-0.4-0.6-0.6-0.6-0.8c0-0.1,0-0.3,0.1-0.6
			c0.1-0.3,0.2-0.4,0.3-0.5c0.6-0.2,0.9-0.4,1-0.3c0.1,0,0.2,0.1,0.4,0.2c0.2,0.1,0.3,0.2,0.3,0.3c0.1,0.2,0.4,0,0.8-0.8
			c0.1-0.2,0.2-0.4,0.3-0.7c0.3-0.5,0.8-1,1.4-1.5c0.6-0.5,1.1-0.8,1.4-1c0.4-0.2,0.9-0.3,1.5-0.5c0.7-0.1,1.1-0.2,1.4-0.2
			c0.8,0.1,1.7,0.6,2.5,1.5c0.4,0.3,0.7,0.9,0.8,1.7c0.1,0.8,0,1.5-0.3,2c-0.1,0.4-0.6,0.9-1.4,1.7c-0.9,0.7-1.6,1.2-2.1,1.4
			C199.3,24.4,198.7,24.4,198,24.4z M200.6,19.1c-0.3-0.3-0.8-0.3-1.4,0.2c-0.2,0.1-0.6,0.3-1,0.7c-0.4,0.4-0.8,0.7-1.1,1.1
			c-0.3,0.4-0.4,0.6-0.3,0.7c0,0,0,0.1,0.1,0.1c0.1,0,0.2,0,0.3,0.1c0.1,0,0.3,0,0.4,0c0.1,0,0.3,0,0.7-0.1c0.3-0.1,0.7-0.2,1-0.4
			c0.3-0.2,0.7-0.6,1.2-1.2C200.6,19.6,200.7,19.2,200.6,19.1z"/>
		<path class="st0" d="M213.3,18.9l0.9-0.3c0.4,0,0.8,0.1,1.2,0.4c0.4,0.3,0.6,0.5,0.6,0.8c0,0.1,0.1,0.2,0.2,0.3
			c0.4,0.5,0.7,1,0.7,1.6c0,0.6-0.2,1.7-0.6,3.3c-0.4,1.6-0.6,2.6-0.6,2.9c0,0.4,0,0.7,0.1,1c0.1,0.3,0.2,0.5,0.2,0.6
			s-0.1,0.3-0.3,0.6c-0.2,0.2-0.6,0.3-1,0.3c-0.5,0-0.9-0.3-1.4-0.8c-0.4-0.5-0.7-1.2-0.7-2s0.3-2.2,0.8-4.2c0-0.1,0-0.3,0.1-0.4
			c0-0.1,0-0.2,0.1-0.3c0-0.1,0-0.1,0-0.2c0,0,0-0.1,0-0.2c0-0.1,0-0.1-0.1-0.1c-0.1,0-0.3,0.1-0.5,0.2c-0.2,0.1-0.4,0.3-0.6,0.4
			c-0.2,0.1-0.4,0.4-0.8,0.6c-0.3,0.3-0.6,0.5-0.9,0.7c-0.2,0.2-0.8,0.6-1.5,1.2c-2,1.7-3.1,2.6-3.3,2.6c-0.2,0-0.6-0.2-1.1-0.5
			c-0.6-0.3-0.8-0.7-0.8-1.1c0-0.4,0.2-1.3,0.7-2.6c0.4-1.3,1-2.6,1.6-3.9c0.1-0.1,0.2-0.6,0.3-1.4c0.2-1.2,0.6-1.8,1.1-1.8
			c0.5,0,1,0.2,1.4,0.7c0.4,0.5,0.6,1,0.6,1.5s-0.1,1.1-0.3,1.8c-0.2,0.7-0.4,1.1-0.5,1.2c0,0,0.1-0.1,0.2-0.2
			c0.2-0.2,0.6-0.5,1.2-0.9c0.8-0.6,1.4-1,1.9-1.3L213.3,18.9z"/>
		<path class="st0" d="M226.5,29.4l-0.6,0.1c-0.1,0-0.5,0.1-1.1,0.2c-0.6,0.2-1,0.3-1.2,0.4c-0.6,0.3-1.6,0.2-2.8-0.2
			c-0.1,0-0.4-0.2-1-0.7c-0.6-0.5-0.9-0.8-1-1.1c-0.8-1.1-0.5-3.2,0.8-6.5c0.3-0.6,0.7-1.3,1.3-2.2s1-1.4,1.3-1.6
			c0.4-0.1,0.8-0.3,1.1-0.5c0.4-0.2,0.8-0.3,1.4-0.5c0.6-0.1,1-0.2,1.2-0.1c0.7,0,1.5,0.4,2.3,1.1c0.8,0.7,1.1,1.2,0.9,1.7
			c0,0.1-0.2,0.4-0.4,0.9c-0.2,0.5-0.5,0.8-0.6,1c-0.2,0.2-0.5,0.2-1,0c-0.5-0.2-0.8-0.5-0.8-0.9c0-0.2-0.4-0.4-1-0.8
			c-0.3,0-0.9,0.6-1.8,1.9c-0.6,0.6-0.9,1.2-1.1,1.8c-0.1,0.5-0.2,1-0.3,1.4s-0.1,0.6-0.2,0.8c-0.1,0.2,0,0.4,0.1,0.8
			c0.1,0.4,0.2,0.6,0.4,0.6c0.4,0,1.1-0.1,2.1-0.3c0.9-0.2,1.8-0.5,2.5-0.8c0.3-0.2,0.6-0.3,0.9-0.3c0.3,0,0.4,0,0.5,0
			c0.1,0,0.2,0,0.3,0.1c0.1,0,0.2,0.1,0.3,0.1c0.4,0.1,0.5,0.5,0.3,1.1s-0.6,1.1-1.2,1.4C227,28.8,226.5,29.1,226.5,29.4z"/>
		<path class="st0" d="M237.7,16c1.4,0,2.5,0.3,3.2,1c0.7,0.7,1,1.4,1,2v0.3c0,0.5-0.3,1.4-1,2.5c-0.3,0.6-0.9,1.2-1.6,1.6
			s-1.4,0.7-2.1,0.8c-0.7,0-1.4,0-2-0.1c-0.6-0.1-1-0.2-1.2-0.2c-0.1,0-0.3,0.1-0.4,0.3c-0.2,0.3-0.3,0.8-0.3,1.5
			c0.1,0.7,0.3,1.2,0.6,1.4c0.3,0.3,0.7,0.4,1.1,0.4c0.4,0,0.9-0.1,1.2-0.3c0.4-0.2,0.8-0.5,1.4-0.9s0.9-0.7,1.2-0.7
			s0.6,0.1,0.9,0.4c0.3,0.3,0.5,0.6,0.5,0.8c-0.1,0.6-0.6,1.3-1.7,2.2c-1.1,0.9-2.3,1.4-3.6,1.4c-1.3,0-2.4-0.4-3.3-1.2
			c-0.9-0.8-1.3-1.9-1.3-3.3c0-0.6,0-1.2,0.1-1.8c0.1-0.6,0.3-1.4,0.6-2.3c0.4-0.9,1-1.9,1.8-3c0.8-1.1,1.7-1.8,2.6-2.3
			S237,16,237.7,16z M237.4,18.6c-0.3,0-0.8,0.3-1.4,0.8c-0.6,0.5-1.1,1.1-1.6,1.8c0,0.3,0.5,0.4,1.2,0.4s1.2-0.1,1.4-0.2
			c0.2-0.1,0.6-0.4,1.1-0.9c0.5-0.5,0.8-0.9,0.8-1c0-0.5-0.4-0.8-1.2-0.9H237.4z"/>
	</g>
</g>
</svg>
