<?xml version="1.0" encoding="utf-8"?>
<!-- Generator: Adobe Illustrator 20.1.0, SVG Export Plug-In . SVG Version: 6.00 Build 0)  -->
<svg version="1.1" id="Layer_1" xmlns="http://www.w3.org/2000/svg" xmlns:xlink="http://www.w3.org/1999/xlink" x="0px" y="0px"
	 viewBox="0 0 211 103" style="enable-background:new 0 0 211 103;" xml:space="preserve">
<style type="text/css">
	.st0{fill:#89C854;}
	.st1{fill:none;stroke:#000000;stroke-width:7.600000e-02;}
</style>
<g id="RT_x5F_logo_2_">
	<path d="M19.6,56.2c-0.6,1.2-0.2,2.6,0.9,3s2.4-0.2,2.9-1.5c0.6-1.2,0.1-2.6-0.9-3C21.4,54.3,20.1,55,19.6,56.2"/>
	<path class="st0" d="M43.4,54.1c1.2-0.3,2.4,0.7,2.8,2.2c0.3,1.5-0.4,2.9-1.5,3.2c-1.2,0.3-2.4-0.7-2.8-2.2S42.2,54.4,43.4,54.1
		 M39.9,85.4c1.2-4,2.1-6.6,2.1-11.3c0-4.6,0-6.2,0.3-8l0.3-1.8c0,0-1.4-0.3-3.8,2.9c-1.9,2.5-1.6,5.4-1.4,6.5l1.6,1.9
		c0.5-0.3,0.6-0.4,0.8-0.8c0.4-0.7,0-1.5,0-1.5l0.3,0.1c0,0,0.8,1.5,0.2,2.4c-0.4,0.6-1.5,1.2-2.1,1.7l0.3,0.3l-0.6,0.5l-1.1-1.2
		l0.6-0.5l0.3,0.3c0,0,0.6-0.5,0.9-0.9l-5.5-5.6l1-0.9l2.3,2.8c-0.3-2.3-0.2-6.8,4-10.1c4.2-3.3,5.8-1.8,12.6-8.3
		c2.3-2.2,3.9-3.7,4.4-4.3C49.7,42.7,37.2,31.5,35.6,30c-0.7,0.6-3.2,2.6-6.4,5.3l4,56.1l3.4,0.8l0,0C36.5,92.3,38.8,89.4,39.9,85.4
		"/>
	<path class="st0" d="M61.3,53.4c-0.8-0.7-1.8-1.6-3-2.7c-1.5,1.4-7.1,6.7-8.9,10.9c-1.2,2.7-1.9,8.9,0.5,10c4.9,2.2,5.6,4,6.1,6.5
		c0.9,4.5-3.6,12.5-3.6,12.5h-1.3c0,0,4-10,1.4-13.2c-1.9-2.3-5.1-2.2-6.6,0.4c-1.4,2.5-2,4.2-3.8,7.7c-2.5,4.7-3.8,6.5-4.3,7.1
		l19.8,4.7L61.3,53.4z"/>
	<path d="M27.6,73.2c0.5-1.5,1.7-6.2-2.3-10c-3.6-3.4-5.7-2.4-10.3-9.8c-1.2-1.8-2.1-3.3-2.7-4.2c4.9-4,11.9-9.7,16.8-13.8l-0.3-4.9
		L6.2,48.9l0.4,5c0,0,1.9-1.5,4.6-3.8c1.2,2,4.1,6.7,5,10.3c0.6,2.6,0.7,6.3-1,8.7c-3.4,4.6-4.6,9.9-4.7,11.4
		c-0.5,5.5,1.3,7.9,1.3,7.9h0.9c0,0-0.8-3.9-0.4-6.3c0.7-4.6,3.5-8.5,5.1-8c1.7,0.5,1.2,2.5,2.7,8.3s2.5,6.4,2.5,6.4h1
		c0,0-0.6-1.5-1.3-5.6c-0.7-3.6-0.8-7.6-0.1-11.6c0.8-4,0.6-3.7,0.6-5.3v-1.6c0,0,1.4,0.1,3.3,3.1c1.8,3,0.1,6.6,0.1,6.6l0,0
		l-0.6,0.4l-1-1L24,74.2l2.8,3l0.4-0.5l-1.1-1.3l2.8-1.8v-0.7l-0.5-0.2L27.6,73.2z"/>
	<path d="M23.8,74.5c-0.3,0.3-0.9,1-1.2,1.4c-0.9,1.3-0.7,2.6-0.7,2.6l0.6-1l-0.1,1.3l0.7-1.1L22.9,79l0.6-0.7l-0.1,0.9l0.5-0.7
		l0.1,1.1c0,0,0.7-1.1,1.7-2c0.2-0.2,0.3-0.3,0.4-0.4L23.8,74.5z"/>
	<path d="M53.9,26.2l-4-4.2l-4.7,4.2l2.1-7.1l-4.8-5.6l5.9,2.1l1.9-7l1.4,7.6l4.3,1.3l-3.4,2.7L53.9,26.2z M27,6.3l1.8,24.2l5.5-4.5
		l1.3-1.1l26.2,23.5l4.5-46L27,6.3z"/>
	<path class="st0" d="M73.3,44.1h-7c0.6,0.3,1,0.8,1,1.5v20.2c0,0.8-0.5,1.2-1,1.5h5.6c-0.6-0.3-1-0.8-1-1.5v-9.4h2.2
		c1.9,0,2.7,1.5,3.7,2.8c1.3,1.9,2.6,4,4.6,6.6c0.6,0.7,1.6,1.6,3.1,1.6l3.8-0.1c0,0-1.6-0.5-2.4-1.4c-1.6-1.6-5.6-7.9-5.6-7.9
		c-0.6-0.8-1.6-2.2-3.6-2.6c2.3-0.2,5.9-2.1,5.9-5.7C82.4,47.6,80.8,44.1,73.3,44.1 M78.6,49.9c0,3.6-2.8,5.1-5.6,5.1
		c-1,0-2.2,0-2.2,0v-9.4c0,0,1.1-0.1,2.8-0.1C77.6,45.5,78.6,48.3,78.6,49.9"/>
	<path class="st0" d="M93.9,65.7c-4,0-6-3-6-6.5v-1H100c0-5.1-3.8-7.1-7-7.1c-5.7,0-8.6,4.6-8.6,8.3c0,4.1,3.2,8.2,8.5,8.2
		c4,0,6.9-2.7,7-5.5C99.2,63.7,96.5,65.7,93.9,65.7 M96.6,57h-8.5c0.3-2.4,1.8-4.6,4.5-4.6C94.6,52.4,96.6,53.7,96.6,57"/>
	<path class="st0" d="M100.6,44.7c0.6,0.2,1.3,0.3,1.3,1.4v19.6c0.4,0.2,3.6,2,6.6,2c6,0,8.9-4.4,8.9-8.6c0-3.6-2.5-7.9-7.1-7.9
		c-2.3,0-3.6,0.7-5.1,1.9v-9.3L100.6,44.7z M113.9,59.2c0,5.4-3.1,7.1-4.9,7.1c-2.8,0-3.8-1.6-3.8-1.6V54.4c1-1.1,2.5-1.4,3.7-1.4
		C111,53,113.9,54.3,113.9,59.2"/>
	<path class="st0" d="M133.4,51.2v13.4c0,1,0.3,1.8,1.5,1.9l-3.2,1.1c-0.9-0.5-1.3-0.9-1.3-2.4c-1.1,1.1-2.8,2.4-5.4,2.4
		c-2.2,0-5.7-1.3-5.7-6.4v-7.9c0-1.1-0.7-1.2-1.3-1.4l4.5-0.8v10c0,2.9,1.7,4.4,3.8,4.4c1.8,0,2.9-0.8,4-1.7V53.4
		c0-1.1-0.7-1.2-1.3-1.4L133.4,51.2z"/>
	<path class="st0" d="M140.2,51.2V66c0,0.8,0.4,1,1,1.3H136c0.6-0.3,1-0.5,1-1.3V53.4c0-1.1-0.7-1.2-1.3-1.4L140.2,51.2z
		 M138.5,44.3c1,0,1.8,0.8,1.8,1.6c0,1-0.9,1.7-1.8,1.7c-1,0-1.9-0.8-1.9-1.7C136.7,45.1,137.5,44.3,138.5,44.3"/>
	<path class="st0" d="M147,43.8V66c0,0.8,0.4,1,1,1.3h-5.2c0.6-0.3,1-0.5,1-1.3V46c0-1.1-0.7-1.2-1.4-1.4L147,43.8z"/>
	<path class="st0" d="M159.7,44.6c0.6,0.2,1.3,0.3,1.3,1.4v6.3c-0.9-0.6-1.9-1.1-3.5-1.1c-5.4,0-8.6,4.3-8.6,8
		c0,4.2,2.2,8.4,7.3,8.4c2,0,4-1.1,4.8-1.8l0.1,1.8l4.4-1.1c-0.6-0.2-1.3-0.3-1.3-1.4V43.8L159.7,44.6z M152.4,59.1
		c0-3.8,2.2-6.5,5.7-6.5c1.5,0,2.5,0.8,3,1.6v10.5c-0.6,0.5-1.9,1.3-3.2,1.3C156,65.9,152.4,64.5,152.4,59.1"/>
	<path class="st0" d="M171.1,51.2V66c0,0.8,0.4,1,1,1.3h-5.3c0.6-0.3,1-0.5,1-1.3V53.4c0-1.1-0.7-1.2-1.3-1.4L171.1,51.2z
		 M169.4,44.3c1,0,1.8,0.8,1.8,1.6c0,1-0.9,1.7-1.8,1.7c-1,0-1.9-0.8-1.9-1.7C167.6,45.1,168.4,44.3,169.4,44.3"/>
	<path class="st0" d="M188.7,55.9V66c0,0.8,0.4,1,1,1.3h-5.1c0.6-0.3,1-0.5,1-1.3v-8.9c0-1.9-0.7-4-4-4c-1.6,0-3.1,1-3.8,1.8V66
		c0,0.8,0.4,1,1,1.3h-5.1c0.6-0.3,0.9-0.5,0.9-1.3V53.4c0-1.1-0.6-1.2-1.2-1.4l4.5-0.8v2.4c0.8-0.8,3-2.4,5.4-2.4
		C186,51.2,188.7,52.9,188.7,55.9"/>
	<path class="st0" d="M201.6,57.2c0,3.4-1.8,4.7-4,4.7c-1.5,0-3.6-1.1-3.6-5c0-3.2,1.5-4.7,3.8-4.7
		C199.8,52.3,201.6,53.7,201.6,57.2 M206,69c0-2.9-3-3.6-5.5-3.6h-3.2c-2.3,0-3-0.4-3-1c0-0.9,1-1.3,2.2-1.4
		c0.4,0.1,0.8,0.1,1.3,0.1c4.2,0,7-2.7,7-5.9c0-1.5-0.7-3.2-2.2-4.3h3.5v-1.3h-5.6c-1-0.3-1.9-0.3-3-0.3c-3.6,0-6.7,2.7-6.7,6
		c0,2.7,1.6,4.6,4,5.5c-1.4,0.6-3.1,1.7-3.1,3.1c0,1.5,1.8,1.9,1.8,1.9c-1.3,0.5-3.4,1.4-3.4,3.7c0,2.8,3.5,3.9,6.8,3.9
		C202.2,75.2,206,72.3,206,69 M203.6,70.2c0,2-2.5,3.6-5.6,3.6c-3.7,0-5.6-1.5-5.6-3.1c0-1.2,1.2-2.3,2.6-2.8
		c0.8,0.1,2.4,0.2,4.9,0.2C200.7,68.1,203.6,68.2,203.6,70.2"/>
	<path d="M84.4,70.9c0,0-3.4-0.2-6.1-0.2V91c0,0.8,0.4,1.2,1,1.5h-5.5c0.6-0.3,1-0.8,1-1.5V70.7c-2.8,0-6.1,0.2-6.1,0.2
		c-0.9,0-1.6,0.8-1.9,1.3v-3h19.6v3C86,71.7,85.4,71,84.4,70.9"/>
	<path d="M81,84.6c0,3.6,2.3,8.2,8.2,8.2c5,0,8.2-4.2,8.2-8.2c0-4.1-2.5-8.2-8.1-8.3C84.1,76.4,81,80.6,81,84.6 M94,84.4
		c0.1,3.8-1.3,7-4.6,7.1c-3.1,0.1-4.9-3-5-6.7c-0.1-3.6,1.2-7.1,4.5-7.2C92.3,77.5,93.8,80.9,94,84.4"/>
	<path d="M109.4,82.4c0,3.4-1.8,4.7-4,4.7c-1.5,0-3.6-1.1-3.6-5c0-3.2,1.5-4.6,3.8-4.6C107.6,77.5,109.4,78.9,109.4,82.4
		 M113.9,94.2c0-2.9-3-3.6-5.5-3.6h-3.2c-2.3,0-3-0.4-3-1c0-0.9,1-1.3,2.2-1.4c0.4,0.1,0.8,0.1,1.3,0.1c4.2,0,7-2.7,7-5.9
		c0-1.5-0.7-3.2-2.2-4.3h3.5v-1.3h-5.6c-1-0.3-1.9-0.3-3-0.3c-3.6,0-6.8,2.7-6.8,6c0,2.7,1.6,4.6,4,5.5c-1.4,0.6-3.1,1.7-3.1,3.1
		c0,1.5,1.8,1.9,1.8,1.9c-1.3,0.5-3.4,1.4-3.4,3.7c0,2.8,3.5,3.9,6.8,3.9C110,100.4,113.9,97.5,113.9,94.2 M111.4,95.4
		c0,2.1-2.5,3.6-5.6,3.6c-3.7,0-5.6-1.5-5.6-3.1c0-1.2,1.2-2.3,2.6-2.8c0.8,0.1,2.4,0.2,4.9,0.2C108.5,93.3,111.4,93.3,111.4,95.4"
		/>
	<path d="M123.2,90.8c-4,0-6-3-6-6.5v-1h12.1c0-5.1-3.8-7.1-7-7.1c-5.7,0-8.6,4.6-8.6,8.3c0,4.1,3.2,8.2,8.5,8.2c4,0,6.9-2.7,7-5.5
		C128.4,88.9,125.8,90.8,123.2,90.8 M125.8,82.2h-8.5c0.3-2.4,1.8-4.6,4.5-4.6C123.9,77.6,125.8,78.8,125.8,82.2"/>
	<path d="M134.3,73.6v3.1h5.1v1.4h-5.2v9.6c0,3.2,2.2,3.6,3.4,3.6c1.5,0,1.9-0.5,2.4-0.9c0,0.9-1.6,2.3-3.8,2.3c-3,0-5.2-1.7-5.2-5
		V78h-1.6L134.3,73.6z"/>
	<path d="M155.2,81.1v10.1c0,0.8,0.3,1,1,1.3H151c0.6-0.3,1-0.5,1-1.3v-9c0-2-0.9-3.9-4-3.9c-1.7,0-3.4,0.9-4.1,1.8v11.1
		c0,0.8,0.4,1,1,1.3h-5.1c0.6-0.3,1-0.5,1-1.3v-20c0-1-0.7-1.2-1.3-1.4L144,69v9.8c0.8-0.6,3.2-2.4,5.6-2.4
		C152.5,76.4,155.2,78,155.2,81.1"/>
	<path d="M166.5,90.8c-4,0-6-3-6-6.5v-1h12.1c0-5.1-3.8-7.1-7-7.1c-5.7,0-8.6,4.6-8.6,8.3c0,4.1,3.2,8.2,8.5,8.2c4,0,6.9-2.7,7-5.5
		C171.8,88.9,169.1,90.8,166.5,90.8 M169.2,82.2h-8.5c0.3-2.4,1.8-4.6,4.5-4.6C167.2,77.6,169.2,78.8,169.2,82.2"/>
	<path d="M177.9,76.4v3c0.8-1.2,2.7-3,4-3c0.9,0,1,0.1,1.4,0.3v3.2c-0.6-0.7-1.2-1.1-2.2-1.1c-1.4,0-2.5,1-3.2,1.8v10.6
		c0,0.8,0.4,1,1,1.3h-5.2c0.6-0.3,1-0.5,1-1.3V78.5c0-1.1-0.7-1.2-1.3-1.4L177.9,76.4z"/>
	<path d="M183.6,90.8c0.3,0,0.4,0,0.6-0.1c0.1-0.1,0.2-0.1,0.3-0.2s0.1-0.2,0.1-0.3c0-0.2-0.1-0.3-0.2-0.4c-0.1-0.1-0.3-0.2-0.5-0.2
		c-0.1,0-0.2,0-0.3,0.1L183.6,90.8L183.6,90.8z M182.9,89.4h1.3c0.3,0,0.6,0.1,0.7,0.2c0.2,0.1,0.3,0.3,0.3,0.5s-0.1,0.3-0.2,0.4
		c-0.1,0.1-0.3,0.2-0.6,0.3l0.7,1c0.1,0.1,0.2,0.2,0.2,0.2s0.1,0,0.2,0v0.1h-0.6l-1-1.3h-0.3v1c0,0.1,0,0.1,0.1,0.2c0,0,0.1,0,0.3,0
		v0.1h-1.2V92c0.1,0,0.2,0,0.2,0l0.1-0.1c0,0,0-0.1,0-0.3V90c0-0.2,0-0.3,0-0.3c0-0.1,0-0.1-0.1-0.1c0,0-0.1,0-0.2,0L182.9,89.4
		L182.9,89.4z M184.2,88.7c-0.4,0-0.7,0.1-1,0.3c-0.3,0.2-0.6,0.4-0.8,0.8c-0.2,0.3-0.3,0.7-0.3,1.1s0.1,0.7,0.3,1.1
		c0.2,0.3,0.4,0.6,0.8,0.8c0.3,0.2,0.7,0.3,1.1,0.3c0.4,0,0.7-0.1,1.1-0.3c0.3-0.2,0.6-0.4,0.8-0.8c0.2-0.3,0.3-0.7,0.3-1.1
		s-0.1-0.7-0.3-1.1c-0.2-0.3-0.5-0.6-0.8-0.8C184.9,88.8,184.5,88.7,184.2,88.7 M184.2,88.5c0.4,0,0.8,0.1,1.1,0.3
		c0.4,0.2,0.7,0.5,0.9,0.9s0.3,0.8,0.3,1.2c0,0.4-0.1,0.8-0.3,1.2c-0.2,0.4-0.5,0.7-0.9,0.9c-0.4,0.2-0.8,0.3-1.2,0.3
		s-0.8-0.1-1.2-0.3c-0.4-0.2-0.7-0.5-0.9-0.9s-0.3-0.8-0.3-1.2c0-0.4,0.1-0.8,0.3-1.2c0.2-0.4,0.5-0.7,0.9-0.9
		C183.4,88.6,183.8,88.5,184.2,88.5"/>
	<path class="st1" d="M183.6,90.8c0.3,0,0.4,0,0.6-0.1c0.1-0.1,0.2-0.1,0.3-0.2s0.1-0.2,0.1-0.3c0-0.2-0.1-0.3-0.2-0.4
		c-0.1-0.1-0.3-0.2-0.5-0.2c-0.1,0-0.2,0-0.3,0.1L183.6,90.8L183.6,90.8z M182.9,89.4h1.3c0.3,0,0.6,0.1,0.7,0.2
		c0.2,0.1,0.3,0.3,0.3,0.5s-0.1,0.3-0.2,0.4c-0.1,0.1-0.3,0.2-0.6,0.3l0.7,1c0.1,0.1,0.2,0.2,0.2,0.2s0.1,0,0.2,0v0.1h-0.6l-1-1.3
		h-0.3v1c0,0.1,0,0.1,0.1,0.2c0,0,0.1,0,0.3,0v0.1h-1.2V92c0.1,0,0.2,0,0.2,0l0.1-0.1c0,0,0-0.1,0-0.3V90c0-0.2,0-0.3,0-0.3
		c0-0.1,0-0.1-0.1-0.1c0,0-0.1,0-0.2,0L182.9,89.4L182.9,89.4z M184.2,88.7c-0.4,0-0.7,0.1-1,0.3c-0.3,0.2-0.6,0.4-0.8,0.8
		c-0.2,0.3-0.3,0.7-0.3,1.1s0.1,0.7,0.3,1.1c0.2,0.3,0.4,0.6,0.8,0.8c0.3,0.2,0.7,0.3,1.1,0.3c0.4,0,0.7-0.1,1.1-0.3
		c0.3-0.2,0.6-0.4,0.8-0.8c0.2-0.3,0.3-0.7,0.3-1.1s-0.1-0.7-0.3-1.1c-0.2-0.3-0.5-0.6-0.8-0.8C184.9,88.8,184.5,88.7,184.2,88.7z
		 M184.2,88.5c0.4,0,0.8,0.1,1.1,0.3c0.4,0.2,0.7,0.5,0.9,0.9s0.3,0.8,0.3,1.2c0,0.4-0.1,0.8-0.3,1.2c-0.2,0.4-0.5,0.7-0.9,0.9
		c-0.4,0.2-0.8,0.3-1.2,0.3s-0.8-0.1-1.2-0.3c-0.4-0.2-0.7-0.5-0.9-0.9s-0.3-0.8-0.3-1.2c0-0.4,0.1-0.8,0.3-1.2
		c0.2-0.4,0.5-0.7,0.9-0.9C183.4,88.6,183.8,88.5,184.2,88.5z"/>
</g>
</svg>
