<?xml version="1.0" encoding="utf-8"?>
<!-- Generator: Adobe Illustrator 20.1.0, SVG Export Plug-In . SVG Version: 6.00 Build 0)  -->
<svg version="1.1" id="Layer_1" xmlns="http://www.w3.org/2000/svg" xmlns:xlink="http://www.w3.org/1999/xlink" x="0px" y="0px"
	 viewBox="0 0 165 92" style="enable-background:new 0 0 165 92;" xml:space="preserve">
<style type="text/css">
	.st0{clip-path:url(#SVGID_2_);fill:#FFFFFF;}
	.st1{clip-path:url(#SVGID_2_);fill:#77BC1F;}
	.st2{clip-path:url(#SVGID_4_);fill:#FFFFFF;}
	.st3{clip-path:url(#SVGID_6_);fill:#FFFFFF;}
</style>
<g>
	<g>
		<defs>
			<rect id="SVGID_1_" x="2.2" y="2" width="160.9" height="88.6"/>
		</defs>
		<clipPath id="SVGID_2_">
			<use xlink:href="#SVGID_1_"  style="overflow:visible;"/>
		</clipPath>
		<path class="st0" d="M13,45.4c-0.4,1-0.1,2.1,0.7,2.4c0.9,0.4,1.9-0.2,2.4-1.2c0.4-1,0.1-2.1-0.7-2.4C14.5,43.8,13.4,44.4,13,45.4
			"/>
		<path class="st1" d="M29.3,68.8c0.9-3.2,1.7-5.3,1.7-9.1c0-3.7,0-4.9,0.2-6.4c0.2-1.4,0.2-1.4,0.2-1.4s-1.1-0.2-3.1,2.3
			c-1.5,2-1.3,4.3-1.1,5.2l1.2,1.5c0.4-0.3,0.5-0.3,0.7-0.6c0.3-0.6,0-1.2,0-1.2l0.2,0.1c0,0,0.6,1.2,0.1,2c-0.3,0.5-1.2,1-1.7,1.4
			l0.2,0.3l-0.5,0.4l-0.9-1l0.5-0.4l0.2,0.2c0,0,0.5-0.4,0.7-0.7l-4.4-4.5l0.8-0.7l1.9,2.3c-0.2-1.8-0.1-5.5,3.2-8.1
			c3.4-2.6,4.6-1.4,10.1-6.7c1.8-1.8,3.1-3,3.5-3.4c-6.2-5.5-16.2-14.6-17.5-15.7c-0.5,0.4-2.5,2.1-5.1,4.2l3.2,45.1l2.7,0.6l0,0
			C26.6,74.3,28.4,72,29.3,68.8 M32.1,43.6c1-0.2,1.9,0.6,2.2,1.8c0.3,1.2-0.3,2.4-1.2,2.6c-1,0.2-1.9-0.6-2.2-1.8
			C30.6,45,31.2,43.9,32.1,43.6z"/>
		<path class="st1" d="M46.5,43.1c-0.6-0.6-1.5-1.3-2.4-2.1c-1.2,1.1-5.7,5.4-7.1,8.8c-0.9,2.2-1.5,7.2,0.4,8
			c3.9,1.7,4.5,3.2,4.9,5.2C43,66.6,39.5,73,39.5,73l-1,0c0,0,3.2-8.1,1.1-10.6c-1.5-1.8-4.1-1.8-5.3,0.3c-1.1,2-1.6,3.3-3.1,6.2
			c-2,3.8-3.1,5.3-3.4,5.7l15.9,3.8L46.5,43.1"/>
		<path class="st0" d="M19.5,59c0.4-1.2,1.4-5-1.9-8.1c-2.9-2.7-4.6-1.9-8.3-7.9c-0.9-1.5-1.7-2.7-2.2-3.4
			c3.9-3.2,9.5-7.8,13.5-11.1l-0.2-4L2.2,39.5l0.3,4c0,0,1.5-1.2,3.7-3c1,1.6,3.3,5.4,4,8.3c0.5,2.1,0.6,5.1-0.8,7
			c-2.7,3.7-3.7,7.9-3.8,9.1c-0.4,4.4,1.1,6.4,1.1,6.4l0.7,0c0,0-0.6-3.1-0.3-5.1c0.5-3.7,2.8-6.8,4.1-6.5c1.4,0.4,1,2,2.2,6.6
			c1.2,4.6,2,5.1,2,5.1l0.8,0c0,0-0.4-1.2-1.1-4.5c-0.6-2.9-0.7-6.1,0-9.3c0.6-3.2,0.5-3,0.5-4.2c0-1.3,0-1.3,0-1.3s1.2,0.1,2.6,2.5
			c1.5,2.4,0.1,5.3,0.1,5.3l0,0l-0.5,0.3l-0.8-0.8l-0.5,0.3l2.3,2.4l0.3-0.4l-0.9-1.1l2.2-1.4l0-0.6l-0.4-0.2L19.5,59"/>
		<path class="st0" d="M16.4,60.1c-0.2,0.2-0.7,0.8-0.9,1.1c-0.7,1.1-0.6,2.1-0.6,2.1l0.5-0.8l-0.1,1l0.6-0.9l-0.2,1l0.5-0.6
			L16,63.8l0.4-0.6l0.1,0.9c0,0,0.5-0.9,1.4-1.6c0.2-0.1,0.2-0.2,0.3-0.3L16.4,60.1"/>
		<path class="st0" d="M18.9,5.2l1.5,19.5l4.4-3.6l1.1-0.9l21,18.9l3.6-36.9L18.9,5.2 M40.6,21.2l-3.2-3.4l-3.8,3.4l1.7-5.7L31.5,11
			l4.7,1.7l1.5-5.6l1.1,6.1l3.5,1l-2.7,2.1L40.6,21.2z"/>
		<path class="st1" d="M60.5,40.3c0,2.9-2.2,4.1-4.5,4.1c-0.8,0-1.7-0.1-1.7-0.1v-7.6c0,0,0.9-0.1,2.2-0.1
			C59.6,36.7,60.5,39,60.5,40.3 M56.2,35.6h-5.6c0.4,0.2,0.8,0.6,0.8,1.2V53c0,0.6-0.4,1-0.8,1.2H55c-0.5-0.2-0.8-0.6-0.8-1.2v-7.6
			c0,0,1.2,0,1.7,0c1.6,0,2.2,1.2,3,2.3c1,1.5,2.1,3.2,3.7,5.3c0.4,0.6,1.3,1.3,2.5,1.3l3.1-0.1c0,0-1.3-0.4-1.9-1.1
			c-1.3-1.3-4.5-6.3-4.5-6.3c-0.4-0.6-1.3-1.8-2.9-2.1c1.9-0.1,4.7-1.6,4.7-4.6C63.5,38.5,62.2,35.6,56.2,35.6z"/>
		<path class="st1" d="M74.9,46h-6.8c0.2-1.9,1.4-3.7,3.6-3.7C73.3,42.3,74.9,43.3,74.9,46 M72.8,52.9c-3.2,0-4.8-2.4-4.8-5.2
			c0-0.3,0-0.5,0-0.8h9.7c0-4.1-3.1-5.7-5.6-5.7c-4.6,0-6.9,3.7-6.9,6.7c0,3.3,2.6,6.6,6.8,6.6c3.2,0,5.5-2.2,5.6-4.4
			C77,51.4,74.8,52.9,72.8,52.9z"/>
		<path class="st1" d="M88.8,47.7c0,4.3-2.5,5.7-4,5.7c-2.3,0-3.1-1.3-3.1-1.3v-8.3c0.8-0.9,2-1.1,3-1.1
			C86.5,42.8,88.8,43.8,88.8,47.7 M78.1,36.1c0.5,0.1,1,0.2,1,1.1v15.8c0.4,0.2,2.9,1.6,5.3,1.6c4.8,0,7.2-3.5,7.2-6.9
			c0-2.9-2-6.3-5.7-6.3c-1.8,0-2.9,0.6-4.1,1.6v-7.5L78.1,36.1z"/>
		<path class="st1" d="M104.5,41.3c0,0,0,10.3,0,10.8c0,0.8,0.3,1.4,1.2,1.6l-2.6,0.9c-0.7-0.4-1.1-0.7-1.1-1.9
			c-0.9,0.9-2.2,1.9-4.4,1.9c-1.8,0-4.6-1.1-4.6-5.2c0-1,0-6.3,0-6.3c0-0.9-0.6-1-1-1.1l3.6-0.7c0,0,0,6.5,0,8.1
			c0,2.3,1.4,3.5,3.1,3.5c1.5,0,2.3-0.6,3.2-1.4V43c0-0.9-0.6-1-1-1.1L104.5,41.3"/>
		<path class="st1" d="M108.6,35.8c0.8,0,1.5,0.6,1.5,1.3c0,0.8-0.7,1.4-1.5,1.4c-0.8,0-1.5-0.6-1.5-1.4
			C107.1,36.4,107.8,35.8,108.6,35.8 M109.9,41.3v11.9c0,0.6,0.3,0.8,0.8,1h-4.2c0.4-0.2,0.8-0.4,0.8-1V43c0-0.9-0.6-1-1-1.1
			L109.9,41.3z"/>
		<path class="st1" d="M115.4,35.4v17.9c0,0.6,0.3,0.8,0.8,1H112c0.4-0.2,0.8-0.4,0.8-1V37.1c0-0.9-0.6-0.9-1.1-1.1L115.4,35.4"/>
		<path class="st1" d="M119.7,47.6c0-3,1.8-5.2,4.6-5.2c1.2,0,2,0.7,2.4,1.3v8.4c-0.5,0.4-1.5,1-2.6,1
			C122.7,53.1,119.7,52,119.7,47.6 M125.6,36c0.5,0.2,1,0.2,1,1.1v5.1c-0.7-0.5-1.5-0.9-2.8-0.9c-4.3,0-6.9,3.4-6.9,6.5
			c0,3.4,1.8,6.8,5.9,6.8c1.6,0,3.2-0.9,3.9-1.5l0.1,1.5l3.5-0.9c-0.4-0.2-1-0.2-1-1.1V35.4L125.6,36z"/>
		<path class="st1" d="M133.4,35.8c0.8,0,1.5,0.6,1.5,1.3c0,0.8-0.7,1.4-1.5,1.4c-0.8,0-1.5-0.6-1.5-1.4
			C131.9,36.4,132.6,35.8,133.4,35.8 M134.7,41.3v11.9c0,0.6,0.3,0.8,0.8,1h-4.2c0.4-0.2,0.8-0.4,0.8-1V43c0-0.9-0.6-1-1-1.1
			L134.7,41.3z"/>
		<path class="st1" d="M148.9,45.1v8.1c0,0.6,0.3,0.8,0.8,1h-4.1c0.5-0.2,0.8-0.4,0.8-1v-7.1c0-1.5-0.5-3.2-3.2-3.2
			c-1.3,0-2.5,0.8-3,1.4v8.9c0,0.6,0.3,0.8,0.8,1h-4.1c0.5-0.2,0.7-0.4,0.7-1V43c0-0.9-0.5-1-1-1.2l3.6-0.6v1.9
			c0.7-0.7,2.4-1.9,4.3-1.9C146.8,41.3,148.9,42.7,148.9,45.1"/>
		<path class="st1" d="M160.9,56.6c0,1.6-2,2.9-4.5,2.9c-2.9,0-4.5-1.2-4.5-2.5c0-0.9,0.9-1.8,2.1-2.2c0.6,0.1,1.9,0.1,4,0.2
			C158.6,54.9,160.9,54.9,160.9,56.6 M162.9,55.7c0-2.3-2.4-2.9-4.4-2.9l-2.6,0c-1.9,0-2.4-0.3-2.4-0.8c0-0.7,0.8-1.1,1.7-1.2
			c0.3,0.1,0.7,0.1,1,0.1c3.4,0,5.6-2.2,5.6-4.8c0-1.2-0.6-2.6-1.7-3.5h2.8v-1h-4.5c-0.8-0.2-1.6-0.3-2.4-0.3
			c-2.9,0-5.4,2.1-5.4,4.8c0,2.2,1.3,3.7,3.2,4.4c-1.1,0.5-2.5,1.4-2.5,2.5c0,1.2,1.5,1.6,1.5,1.6c-1,0.4-2.8,1.2-2.8,2.9
			c0,2.2,2.8,3.1,5.5,3.1C159.8,60.6,162.9,58.3,162.9,55.7z M159.3,46.2c0,2.7-1.5,3.8-3.2,3.8c-1.2,0-2.9-0.9-2.9-4
			c0-2.6,1.2-3.7,3.1-3.7C157.8,42.2,159.3,43.4,159.3,46.2z"/>
		<path class="st0" d="M62.8,57.2c0,0-2.7-0.2-4.9-0.2v16.3c0,0.6,0.3,1,0.8,1.2h-4.4c0.5-0.2,0.8-0.6,0.8-1.2V57
			c-2.2,0-4.9,0.2-4.9,0.2c-0.7,0-1.3,0.6-1.6,1.1v-2.4h15.8l0,2.4C64.1,57.8,63.6,57.2,62.8,57.2"/>
		<path class="st0" d="M70.5,68c0.1,3-1,5.6-3.7,5.7c-2.5,0.1-4-2.4-4-5.4c-0.1-2.9,1-5.7,3.6-5.8C69.1,62.4,70.4,65.2,70.5,68
			 M60.1,68.2c0,2.9,1.8,6.6,6.6,6.6c4,0,6.6-3.3,6.6-6.6c0-3.3-2-6.6-6.5-6.6C62.6,61.5,60.1,64.9,60.1,68.2z"/>
		<path class="st0" d="M84.5,76.8c0,1.6-2,2.9-4.5,2.9c-2.9,0-4.5-1.2-4.5-2.5c0-0.9,0.9-1.8,2.1-2.2c0.6,0.1,1.9,0.1,4,0.2
			C82.2,75.2,84.5,75.2,84.5,76.8 M86.5,75.9c0-2.3-2.4-2.9-4.4-2.9l-2.6,0c-1.9,0-2.4-0.3-2.4-0.8c0-0.7,0.8-1.1,1.7-1.2
			c0.3,0.1,0.7,0.1,1,0.1c3.4,0,5.6-2.2,5.6-4.8c0-1.2-0.6-2.6-1.7-3.5h2.8v-1H82c-0.8-0.2-1.6-0.3-2.4-0.3c-2.9,0-5.4,2.1-5.4,4.8
			c0,2.2,1.3,3.7,3.2,4.4c-1.1,0.5-2.5,1.4-2.5,2.5c0,1.2,1.5,1.6,1.5,1.6c-1,0.4-2.8,1.2-2.8,2.9c0,2.2,2.8,3.1,5.5,3.1
			C83.4,80.8,86.5,78.5,86.5,75.9z M82.9,66.4c0,2.7-1.5,3.8-3.2,3.8c-1.2,0-2.9-0.9-2.9-4c0-2.6,1.2-3.7,3.1-3.7
			C81.5,62.4,82.9,63.6,82.9,66.4z"/>
		<path class="st0" d="M96.1,66.2h-6.8c0.2-1.9,1.4-3.7,3.6-3.7C94.5,62.5,96.1,63.5,96.1,66.2 M93.9,73.2c-3.2,0-4.8-2.4-4.8-5.2
			c0-0.3,0-0.5,0-0.8h9.7c0-4.1-3.1-5.7-5.6-5.7c-4.6,0-6.9,3.7-6.9,6.7c0,3.3,2.6,6.6,6.8,6.6c3.2,0,5.5-2.2,5.6-4.4
			C98.2,71.6,96,73.2,93.9,73.2z"/>
		<path class="st0" d="M102.9,59.3v2.5h4.1V63h-4.2v7.7c0,2.6,1.8,2.9,2.7,2.9c1.2,0,1.5-0.4,1.9-0.7c0,0.7-1.3,1.9-3,1.9
			c-2.4,0-4.2-1.3-4.2-4V63H99L102.9,59.3"/>
		<path class="st0" d="M119.7,65.3v8.1c0,0.6,0.3,0.8,0.8,1h-4.1c0.5-0.2,0.8-0.4,0.8-1v-7.2c0-1.6-0.7-3.1-3.2-3.1
			c-1.3,0-2.7,0.7-3.3,1.4v8.9c0,0.6,0.3,0.8,0.8,1h-4.2c0.5-0.2,0.8-0.4,0.8-1V57.4c0-0.8-0.6-0.9-1-1.1l3.7-0.7v7.9
			c0.7-0.5,2.5-1.9,4.5-1.9C117.6,61.5,119.7,62.8,119.7,65.3"/>
		<path class="st0" d="M131,66.2h-6.8c0.2-1.9,1.4-3.7,3.6-3.7C129.4,62.5,131,63.5,131,66.2 M128.8,73.2c-3.2,0-4.8-2.4-4.8-5.2
			c0-0.3,0-0.5,0-0.8h9.7c0-4.1-3.1-5.7-5.6-5.7c-4.6,0-6.9,3.7-6.9,6.7c0,3.3,2.6,6.6,6.8,6.6c3.2,0,5.5-2.2,5.6-4.4
			C133,71.6,130.9,73.2,128.8,73.2z"/>
		<path class="st0" d="M137.9,61.5v2.4c0.6-1,2.2-2.4,3.2-2.4c0.7,0,0.8,0.1,1.1,0.2v2.6c-0.4-0.5-1-0.9-1.8-0.9
			c-1.1,0-2,0.8-2.6,1.5v8.5c0,0.6,0.3,0.8,0.8,1h-4.2c0.5-0.2,0.8-0.4,0.8-1V63.3c0-0.9-0.6-1-1.1-1.1L137.9,61.5"/>
		<path class="st0" d="M54.8,86.3c0-0.7,0-0.9-0.4-0.9l-0.3,0c-0.1-0.1-0.1-0.2,0-0.2c0.6-0.1,1.1-0.1,1.8-0.1
			c0.8,0,1.3,0.1,1.7,0.3c0.4,0.3,0.7,0.7,0.7,1.2c0,1.2-1.2,1.6-1.8,1.6c-0.1,0-0.1,0-0.2,0c-0.1,0-0.1-0.2,0-0.2
			c0.7-0.1,1-0.7,1-1.4c0-0.7-0.4-1.2-1.2-1.2c-0.4,0-0.4,0-0.4,0.3v3.6c0,0.9,0.1,0.9,0.5,0.9l0.3,0c0,0.1,0,0.2,0,0.2
			c-0.5,0-0.9,0-1.2,0c-0.4,0-0.7,0-1.1,0c-0.1,0-0.1-0.2,0-0.2l0.1,0c0.4-0.1,0.5-0.1,0.5-0.9V86.3"/>
	</g>
	<g>
		<defs>
			<rect id="SVGID_3_" x="2.2" y="2.2" width="160.7" height="88.5"/>
		</defs>
		<clipPath id="SVGID_4_">
			<use xlink:href="#SVGID_3_"  style="overflow:visible;"/>
		</clipPath>
		<path class="st2" d="M64.7,86.3c0-0.9-0.1-0.9-0.5-0.9l-0.1,0c-0.1-0.1,0-0.2,0-0.2c0.3,0,0.7,0,1.1,0h1.6c0.5,0,1,0,1.1,0
			c0,0.1,0.1,0.8,0.1,1.1c0,0.1-0.2,0.1-0.3,0c-0.1-0.5-0.3-0.7-0.5-0.7c-0.2-0.1-0.4-0.1-0.7-0.1H66c-0.4,0-0.4,0-0.4,0.5v1.4
			c0,0.2,0,0.2,0.2,0.2h0.4c0.7,0,0.9,0,0.9-0.4l0.1-0.3c0.1-0.1,0.2-0.1,0.3,0c0,0.2,0,0.5,0,0.8c0,0.3,0,0.6,0,0.9
			c0,0.1-0.2,0.1-0.3,0l-0.1-0.3c-0.1-0.3-0.2-0.4-0.9-0.4h-0.4c-0.2,0-0.2,0-0.2,0.2v1c0,0.4,0,0.7,0.1,0.9
			c0.1,0.1,0.2,0.2,0.9,0.2c1,0,1.2-0.2,1.5-0.9c0.1-0.1,0.2,0,0.3,0c0,0.3-0.2,1-0.3,1.2c-0.4,0-1.1,0-2,0h-0.9c-0.4,0-0.9,0-1.2,0
			c-0.1,0-0.1-0.2,0-0.2l0.3,0c0.4,0,0.5-0.1,0.5-0.9V86.3"/>
		<path class="st2" d="M79,89.1c0,0.2,0,1.3,0,1.4c-0.1,0.1-0.2,0.1-0.3,0.1c-0.1-0.2-0.4-0.4-1-1.1l-1.9-2.2
			c-0.5-0.6-0.8-0.9-0.9-1c0,0,0,0.1,0,0.5v1.6c0,0.6,0,1.4,0.1,1.6c0.1,0.1,0.2,0.2,0.4,0.2l0.2,0c0.1,0.1,0.1,0.2,0,0.2
			c-0.3,0-0.6,0-0.9,0c-0.3,0-0.6,0-0.9,0c-0.1,0-0.1-0.2,0-0.2l0.2,0c0.2,0,0.3-0.1,0.4-0.2c0.1-0.3,0.1-1,0.1-1.6v-1.9
			c0-0.6,0-0.8-0.3-1c-0.1-0.1-0.3-0.1-0.4-0.2l-0.1,0c-0.1,0,0-0.2,0-0.2c0.3,0,0.8,0,1,0c0.2,0,0.4,0,0.6,0c0.1,0.4,1,1.4,1.3,1.7
			l0.8,0.9c0.3,0.4,1.1,1.2,1.2,1.3c0,0,0-0.1,0-0.2v-1.6c0-0.6,0-1.4-0.2-1.6c-0.1-0.1-0.2-0.2-0.4-0.2l-0.2,0
			c-0.1-0.1-0.1-0.2,0-0.2c0.3,0,0.6,0,0.9,0c0.4,0,0.6,0,0.9,0c0.1,0,0.1,0.2,0,0.2l-0.2,0c-0.2,0-0.3,0.1-0.4,0.2
			c-0.1,0.3-0.1,1-0.1,1.6V89.1"/>
		<path class="st2" d="M87,89.3c0,0.9,0.1,0.9,0.5,0.9l0.2,0c0.1,0.1,0,0.2,0,0.2c-0.4,0-0.7,0-1.1,0s-0.7,0-1.1,0
			c-0.1,0-0.1-0.2,0-0.2l0.2,0c0.4,0,0.5-0.1,0.5-0.9v-3c0-0.9-0.1-0.9-0.5-0.9l-0.2,0c-0.1-0.1,0-0.2,0-0.2c0.4,0,0.7,0,1.1,0
			c0.4,0,0.7,0,1.1,0c0.1,0,0.1,0.2,0,0.2l-0.2,0c-0.4,0-0.5,0.1-0.5,0.9V89.3"/>
		<path class="st2" d="M98.5,89.1c0,0.2,0,1.3,0,1.4c-0.1,0.1-0.2,0.1-0.3,0.1c-0.1-0.2-0.4-0.4-1-1.1l-1.9-2.2
			c-0.5-0.6-0.8-0.9-0.9-1c0,0,0,0.1,0,0.5v1.6c0,0.6,0,1.4,0.1,1.6c0.1,0.1,0.2,0.2,0.4,0.2l0.2,0c0.1,0.1,0.1,0.2,0,0.2
			c-0.3,0-0.6,0-0.9,0c-0.3,0-0.6,0-0.9,0c-0.1,0-0.1-0.2,0-0.2l0.2,0c0.2,0,0.3-0.1,0.4-0.2c0.1-0.3,0.1-1,0.1-1.6v-1.9
			c0-0.6,0-0.8-0.3-1c-0.1-0.1-0.3-0.1-0.4-0.2l-0.1,0c-0.1,0,0-0.2,0-0.2c0.3,0,0.8,0,1,0c0.2,0,0.4,0,0.6,0c0.1,0.4,1,1.4,1.3,1.7
			l0.8,0.9c0.3,0.4,1.1,1.2,1.2,1.3c0,0,0-0.1,0-0.2v-1.6c0-0.6,0-1.4-0.2-1.6c-0.1-0.1-0.2-0.2-0.4-0.2l-0.2,0
			c-0.1-0.1-0.1-0.2,0-0.2c0.3,0,0.6,0,0.9,0c0.4,0,0.6,0,0.9,0c0.1,0,0.1,0.2,0,0.2l-0.2,0c-0.2,0-0.3,0.1-0.4,0.2
			c-0.1,0.3-0.1,1-0.1,1.6V89.1"/>
	</g>
	<g>
		<defs>
			<rect id="SVGID_5_" x="2.2" y="2" width="160.9" height="88.6"/>
		</defs>
		<clipPath id="SVGID_6_">
			<use xlink:href="#SVGID_5_"  style="overflow:visible;"/>
		</clipPath>
		<path class="st3" d="M105.1,90.3c-0.1-0.2-0.3-0.7-0.2-1.2c0-0.1,0.2-0.1,0.3,0c0.1,0.4,0.6,1.3,1.4,1.3c0.6,0,1-0.4,1-0.9
			c0-0.5-0.2-0.8-0.8-1.2l-0.4-0.2c-0.6-0.3-1.2-0.8-1.2-1.6c0-0.8,0.6-1.5,1.8-1.5c0.4,0,0.7,0.1,1.1,0.2c0.1,0.2,0.2,0.7,0.2,1.1
			c0,0.1-0.2,0.1-0.3,0c-0.1-0.4-0.4-1-1.1-1c-0.7,0-0.9,0.4-0.9,0.9c0,0.3,0.2,0.7,0.8,1l0.5,0.3c0.5,0.3,1.1,0.8,1.1,1.6
			c0,0.9-0.7,1.6-1.9,1.6C105.7,90.6,105.2,90.4,105.1,90.3"/>
		<path class="st3" d="M114.7,86.3c0-0.9-0.1-0.9-0.5-0.9l-0.1,0c-0.1-0.1,0-0.2,0-0.2c0.3,0,0.7,0,1.1,0c0.4,0,0.7,0,1.1,0
			c0.1,0,0.1,0.2,0,0.2l-0.2,0c-0.4,0.1-0.5,0.1-0.5,0.9v1.9c0,1.1,0.3,2.1,1.5,2.1c1.1,0,1.5-0.8,1.5-2.1v-1c0-0.6,0-1.4-0.2-1.6
			c-0.1-0.1-0.2-0.2-0.4-0.2l-0.2,0c-0.1-0.1-0.1-0.2,0-0.2c0.3,0,0.6,0,0.9,0c0.3,0,0.6,0,0.9,0c0.1,0,0.1,0.2,0,0.2l-0.2,0
			c-0.2,0-0.3,0.1-0.4,0.2c-0.1,0.2-0.1,1-0.1,1.6v1c0,0.7-0.1,1.4-0.5,1.9c-0.4,0.5-1,0.6-1.6,0.6c-0.8,0-1.3-0.2-1.7-0.5
			c-0.4-0.4-0.5-0.9-0.5-1.7V86.3"/>
		<path class="st3" d="M126.9,89.1c0,0.4,0,0.7,0.1,0.8c0.1,0.1,0.2,0.2,0.9,0.2c0.9,0,1,0,1.4-0.9c0.1,0,0.2,0,0.3,0
			c-0.1,0.3-0.2,1-0.3,1.2c-0.3,0-1,0-2,0h-0.9c-0.4,0-0.8,0-1.2,0c-0.1,0-0.1-0.2,0-0.2l0.2,0c0.4,0,0.5-0.1,0.5-0.9v-3
			c0-0.9-0.1-0.9-0.5-0.9l-0.2,0c-0.1,0-0.1-0.2,0-0.2c0.4,0,0.8,0,1.2,0c0.4,0,0.7,0,1.1,0c0.1,0,0.1,0.2,0,0.2l-0.2,0
			c-0.4,0.1-0.5,0.1-0.5,0.9V89.1"/>
		<path class="st3" d="M136.4,88.5c-0.2,0-0.2,0-0.3,0.2l-0.3,1c-0.2,0.5-0.1,0.5,0.2,0.5l0.2,0c0.1,0.1,0,0.2,0,0.2
			c-0.3,0-0.5,0-0.9,0c-0.3,0-0.5,0-0.8,0c-0.1,0-0.1-0.2,0-0.2l0.2,0c0.2,0,0.3-0.1,0.4-0.4c0.1-0.2,0.2-0.6,0.4-1l1.1-2.9
			c0.1-0.3,0.2-0.5,0.2-0.6c0.3-0.1,0.6-0.4,0.6-0.4c0.1,0,0.1,0,0.1,0.1c0.1,0.4,0.2,0.8,0.4,1.1l1.2,3.4c0.2,0.5,0.2,0.6,0.6,0.7
			l0.1,0c0.1,0.1,0.1,0.2,0,0.2c-0.3,0-0.6,0-1.1,0c-0.4,0-0.7,0-1,0c-0.1,0-0.1-0.2,0-0.2l0.2,0c0.3,0,0.3-0.1,0.2-0.4l-0.4-1.1
			c-0.1-0.2-0.1-0.2-0.3-0.2H136.4 M137.4,88.1c0.2,0,0.3,0,0.2-0.2l-0.3-1c-0.1-0.4-0.2-0.6-0.2-0.6h0c0,0.1-0.1,0.3-0.2,0.6
			l-0.3,1c-0.1,0.2-0.1,0.2,0.1,0.2H137.4z"/>
		<path class="st3" d="M146.3,63.8c-0.3,0.3-0.6,0.4-1,0.4c-0.4,0-0.8-0.1-1-0.4c-0.3-0.3-0.4-0.6-0.4-1c0-0.4,0.1-0.7,0.4-1
			c0.3-0.3,0.6-0.4,1-0.4c0.4,0,0.8,0.1,1,0.4c0.3,0.3,0.4,0.6,0.4,1C146.7,63.2,146.6,63.5,146.3,63.8 M144.4,61.9
			c-0.2,0.2-0.4,0.5-0.4,0.9c0,0.4,0.1,0.7,0.4,0.9c0.2,0.2,0.5,0.4,0.9,0.4c0.4,0,0.6-0.1,0.9-0.4c0.2-0.2,0.4-0.5,0.4-0.9
			c0-0.3-0.1-0.6-0.4-0.9c-0.2-0.2-0.5-0.4-0.9-0.4C144.9,61.5,144.6,61.6,144.4,61.9z M145.2,61.9c0.2,0,0.3,0,0.4,0.1
			c0.2,0.1,0.3,0.2,0.3,0.4c0,0.1-0.1,0.2-0.2,0.3c-0.1,0-0.1,0.1-0.2,0.1c0.1,0,0.2,0.1,0.3,0.2c0.1,0.1,0.1,0.2,0.1,0.2v0.1
			c0,0,0,0.1,0,0.1c0,0,0,0.1,0,0.1l0,0h-0.3c0,0,0,0,0,0c0,0,0,0,0,0l0-0.1v-0.1c0-0.2-0.1-0.3-0.2-0.4c-0.1,0-0.2-0.1-0.3-0.1
			h-0.2v0.6h-0.3v-1.6H145.2z M145.5,62.2c-0.1,0-0.2-0.1-0.3-0.1h-0.2v0.6h0.3c0.1,0,0.2,0,0.3,0c0.1,0,0.2-0.1,0.2-0.2
			C145.6,62.3,145.6,62.2,145.5,62.2z"/>
	</g>
</g>
</svg>
